<?xml version="1.0" encoding="UTF-8"?>
<svg id="Logo" xmlns="http://www.w3.org/2000/svg" xmlns:xlink="http://www.w3.org/1999/xlink" viewBox="0 0 843.2027 893.0677">
  <defs>
    <style>
      .cls-1 {
        fill: none;
      }

      .cls-2 {
        clip-path: url(#clippath);
      }

      .cls-3 {
        fill: #fff;
      }

      .cls-4 {
        fill: #0b382c;
      }

      .cls-5 {
        fill: #277c66;
      }

      .cls-6 {
        fill: #2d3a5b;
      }
    </style>
    <clipPath id="clippath">
      <circle class="cls-1" cx="421.60134" cy="421.60134" r="373.70683"/>
    </clipPath>
  </defs>
  <g id="Illu">
    <g class="cls-2">
      <rect id="Ciel" class="cls-6" width="843.20269" height="843.20269"/>
      <g id="Montagnes">
        <path class="cls-4" d="M843.2027,440.99981c-1.28735,1.12787-2.58179,2.23145-3.88501,3.3045-15.50513,12.76666-43.80005,45.53094-65.82227,43.51373-14.88989-1.36389-36.7876-23.07538-48.80103-30.94989-13.26135-8.6925-51.28052-41.38025-65.3374-41.57129-15.53796-.21112-49.5271,38.75885-61.33813,48.0611-21.3075,16.78168-28.23547,28.87842-52.53027,12.36011-20.21313-13.74304-26.89771-37.88202-49.26855-26.38251-17.04541,8.76202-34.8913,38.51306-48.21661,52.93896-16.64148,18.01605-34.18622,33.19556-53.14844,48.76343-14.81165,12.16028-45.51636,45.31091-64.6167,42.96014-31.87738-3.92334-61.0257-70.3385-75.18604-94.60742-6.59766-11.3075-21.39783-41.724-33.02362-46.33386-14.9483-5.92725-37.85236,15.13177-52.87079,22.2005-19.20209,9.03778-36.24768,20.82135-52.32721,8.53717-13.1524-10.04791-20.62616-35.61237-31.56049-48.47638C55.65503,400.47644,38.8642,404.73303,0,427.7409v415.46179H843.2027V440.99981Z"/>
      </g>
      <g id="Branches">
        <path class="cls-5" d="M538.40101,883.23164c.81666-17.48999-3.04477-35.23542-8.11448-51.87718-5.4888-18.01747-12.79682-35.60136-21.38324-52.35919-19.3731-37.80982-42.7727-73.86299-66.9375-108.75169-6.72833-9.71424-13.59325-19.33151-20.54253-28.88868-6.0959-8.38353-11.86553-16.78759-13.60879-27.18572-.91193-5.43948-7.63058-8.48014-12.55302-7.12738-5.76596,1.58457-8.04198,7.09767-7.12738,12.55302,3.22759,19.25185,17.81988,34.81619,28.70888,50.23029,12.2597,17.35441,24.14146,34.9782,35.52963,52.91736,21.05729,33.1704,42.30199,67.33727,55.18309,104.65748,6.15972,17.84645,11.32498,36.79094,10.43591,55.83168-.61309,13.1303,19.79781,13.09918,20.40945,0h0Z"/>
        <path class="cls-5" d="M408.67023,632.56878c-5.3392-16.2641-21.53505-25.90786-35.35223-34.3389-17.96366-10.96116-35.12749-23.28442-52.3764-35.3326-18.48526-12.91175-36.16541-26.57306-56.14312-37.18692-19.1892-10.19493-39.35685-18.42643-59.6032-26.25454-11.82529-4.57217-23.60524-9.67818-36.06571-12.24778-12.85443-2.65085-26.00986-3.29651-38.95068-5.38537-8.56598-1.38269-12.25255,11.72636-3.61709,13.12027,10.59972,1.71097,21.32045,2.47005,31.92365,4.12702,11.28985,1.76428,21.68278,5.32335,32.31964,9.37675,19.56469,7.45554,39.11301,15.02885,57.90712,24.29597,38.78886,19.12625,71.68936,47.89759,107.93491,71.19404,7.47647,4.80542,15.26081,9.12069,22.54139,14.23143,6.45659,4.53233,13.80488,10.22999,16.36145,18.01773,2.71882,8.28199,15.86237,4.73582,13.12027-3.61709h0Z"/>
        <path class="cls-5" d="M229.51412,640.71082c13.52102-35.44167,54.35404-52.15014,85.58368-68.28891,5.83622-3.01602,.68077-11.82496-5.15052-8.81148-34.24438,17.69671-75.53208,35.74729-90.27337,74.38757-2.34296,6.14144,7.51875,8.79788,9.8402,2.71282h0Z"/>
        <path class="cls-5" d="M407.98442,630.94365c-29.11787-64.91339-30.03957-139.0062-27.05188-208.81982,3.10764-72.61658,12.71536-145.27633,9.89481-218.05189-.68912-17.78055-.87577-37.04343-7.42172-53.82278-6.42951-16.48089-18.57259-29.57626-29.4896-43.19208-5.4771-6.83111-15.0495,2.85075-9.62111,9.62111,9.10916,11.36106,19.73729,22.51529,25.54456,36.07421,6.22979,14.54543,6.46384,31.32185,7.19242,46.88702,1.64602,35.16522-.02158,70.41539-2.24655,105.51674-4.63278,73.08707-12.75921,146.72198-6.06258,219.94297,3.54653,38.77781,11.52122,77.06087,27.51301,112.71188,3.57755,7.97554,15.30636,1.06398,11.74864-6.86736h0Z"/>
        <path class="cls-5" d="M377.48537,409.22293c-.99734-6.16944-5.00173-12.01107-8.4531-17.06232-5.00387-7.32343-10.60999-14.25301-16.33702-21.01884-7.46932-8.82416-15.23175-17.43558-23.29256-25.7253-4.58642-4.71666-11.79875,2.50277-7.21583,7.21583,7.54979,7.76418,14.8273,15.81823,21.8648,24.04745,5.35638,6.26342,10.60201,12.64969,15.32486,19.40955,3.28238,4.69809,7.32998,10.04,8.26864,15.84646,1.04532,6.46618,10.88047,3.72212,9.8402-2.71282h0Z"/>
        <g>
          <path class="cls-5" d="M325.79477,349.02438c-24.0787,20.71916-45.47399,19.9985-72.66074,3.31806-23.28993-14.28955-62.98028-45.52189-71.30009-71.69047,27.05314-7.08535,65.91545-26.9908,87.55386-2.96582"/>
          <path class="cls-5" d="M321.55213,344.78174c-11.40544,9.63938-25.12192,16.24754-40.321,13.13271-14.1466-2.89915-26.602-11.25006-38.2207-19.46267-11.83325-8.36427-23.10639-17.63164-33.30595-27.93691-8.87532-8.96731-18.02989-19.27231-22.08488-31.45793l-4.19064,7.38071c14.45388-3.85856,28.37191-9.5764,43.05286-12.61207,13.77191-2.8477,28.43062-2.83373,38.66331,8.10321,5.28741,5.65131,13.76001-2.84753,8.48528-8.48528-25.06807-26.79336-64.5511-6.27637-93.39154,1.42279-3.01204,.80409-5.21116,4.31393-4.19064,7.38071,7.60369,22.84981,27.96515,40.94882,46.23612,55.5199,18.8264,15.01404,41.77472,32.89069,66.98717,32.95811,15.61241,.04175,29.15231-7.64273,40.76586-17.458,5.90608-4.99156-2.61871-13.44345-8.48528-8.48528h0Z"/>
        </g>
        <path class="cls-5" d="M363.82233,92.79785c-1.41498-13.79553-14.62329-23.77722-28.26318-20.1463-1.88373,.50146-3.70038,1.23804-5.41205,2.16907-3.14563,.73358-5.66235,3.08478-7.44135,6.05328-2.15112,2.53278-3.7923,5.46045-4.73511,8.59088-2.0036,3.55334-3.02557,7.69525-2.6286,11.96265,1.242,13.35278,14.06952,22.69708,27.1402,20.42712,13.25446-2.30194,22.69287-15.86804,21.34009-29.0567Z"/>
        <path class="cls-5" d="M233.27887,658.68048c1.44513-3.09259,1.92645-6.48151,.99188-9.93225-1.51843-5.60632-6.85022-9.78186-12.54089-11.09143-1.10687-1.25897-2.42151-2.33307-3.97437-3.11517-10.11938-5.09674-23.70776,4.71179-26.53839,14.45319-2.40948,8.29193,1.16486,16.76666,6.68756,23.15045,.77826,1.55884,1.83179,2.98871,3.20032,4.23206,3.73572,4.26239,8.87927,6.9978,14.61963,6.38196,6.62115,.89227,12.93152-1.65247,15.96936-9.68414,.61835-1.63477,.37018-3.01923-.36328-4.06165,1.2301-3.31702,1.87469-6.89331,1.94818-10.33301Z"/>
        <g>
          <path class="cls-5" d="M208.24295,506.73891c9.01771-50.24154-43.43463-108.21978-81.28665-114.40889-3.58818,18.41303,11.35398,50.64764,22.02739,64.16734,14.90233,18.87635,44.4031,32.99728,57.97101,51.52979"/>
          <path class="cls-5" d="M214.02863,508.33395c4.77661-28.27416-6.63195-56.17745-23.67203-78.34746-14.98471-19.49587-36.74792-39.06955-61.80526-43.44214-2.94791-.51442-6.78364,.75908-7.38071,4.19064-2.10101,12.07524,.96571,24.45567,5.15961,35.76752,4.07938,11.00296,9.28768,21.9662,16.27029,31.44563,15.97433,21.68637,43.10294,31.72206,59.17336,53.10734,4.58354,6.09943,15.00689,.12491,10.36165-6.05663-15.53661-20.67494-40.45143-31.15871-57.16142-50.62699-6.99661-8.15153-12.11015-18.45773-16.04588-28.382-3.84292-9.69026-8.02892-21.47436-6.18625-32.06478l-7.38071,4.19064c22.14478,3.86434,41.26658,20.9332,54.71683,38.05085,14.94201,19.01614,26.54944,44.29235,22.37918,68.97733-1.27613,7.55379,10.28567,10.80038,11.57135,3.19008h0Z"/>
        </g>
        <path class="cls-5" d="M130.03052,483.2116c2.20782-9.20892-5.36658-17.33734-13.75916-19.50055-12.95911-3.34033-37.27374,4.76111-29.54913,22.05817-.83911,1.6579-1.474,3.36981-1.8338,5.10101-1.711,8.23193,2.68304,13.94434,9.1972,17.03064,.98193,.60419,2.07538,1.02112,3.23816,1.27209,13.64056,4.33063,32.80646-1.14856,29.13428-17.24542,.1792-.78662,.30304-1.58508,.37378-2.39221,1.48358-1.76074,2.60828-3.86096,3.19867-6.32373Zm-30.01666,16.0047c-.02399-.4491-.05072-.96222-.02869-1.1004,.03247-.20361,.08221-.40668,.12683-.60999,.43103,.59351,.89777,1.15033,1.39105,1.67438-.35406,.08319-.68182,.15875-.93738,.21893-.18713-.05975-.37238-.12024-.55182-.18292Z"/>
        <g>
          <path class="cls-5" d="M325.79477,339.07021c-60.55094,9.2274-58.50087-71.08839-56.36019-106.0833,.35798-5.85213-15.02465-43.6932-5.7971-48.9533,7.57917-4.32046,31.33581,14.0886,36.30649,18.75534,17.50721,16.43675,29.67309,33.61366,34.55343,56.64788,5.26032,24.82762,11.67413,61.45777-10.36165,79.63338"/>
          <path class="cls-5" d="M324.19973,333.28453c-50.28407,7.22134-50.74298-59.82986-49.13372-93.58581,.18673-3.91686,.53463-7.54846-.26838-11.4194-1.00249-4.83254-2.58599-9.56404-3.89705-14.3182-1.50972-5.47452-3.04562-11.03353-3.83591-16.66733-.31509-2.24617-.61274-4.74465-.31192-7.01256-.06103,.46013,.44196-1.62443,.428-1.71793,.13865,.92853-.59138-.4708,.14805-.0938,.07973,.04065-.80545,.98979-.84091,.82853,.07354,.33438-.61765-.3114,.82818,.13089,.85723,.26223,1.95416,.50989,2.90037,.84674,2.82811,1.00682,5.47846,2.52679,8.05223,4.05493,4.87581,2.89495,9.57974,6.16832,13.98158,9.74435,11.7503,9.54588,22.05485,21.84952,28.94568,35.33946,7.78641,15.24318,10.90918,33.85634,12.10991,50.82787,1.1343,16.03252-.4321,33.49359-13.41273,44.58528-5.8802,5.02451,2.64171,13.47849,8.48528,8.48528,13.0696-11.16771,17.23377-28.35609,17.22922-44.93162-.00461-16.79746-2.84764-35.16827-8.19915-51.1089-6.22138-18.53174-17.9959-34.22607-32.03648-47.60412-8.99017-8.56595-20.51327-17.22986-32.40508-21.1192-5.5044-1.80027-12.06984-1.78442-15.68144,3.44139-3.01124,4.35712-2.83755,10.09912-2.24965,15.13717,1.42044,12.17262,6.62102,23.43628,8.41375,35.44828,.23978,1.60659-.03335-.93037-.01895-.07488,.00674,.40047,.00093,.78346-.03853,1.18713-.10681,1.09256-.12911,2.20232-.18796,3.29795-.1367,2.54536-.25395,5.09181-.34354,7.63928-.20332,5.78192-.27263,11.56971-.14464,17.35419,.28166,12.72991,1.41782,25.61791,4.47168,38.0059,3.15611,12.80277,8.72879,26.05506,18.89845,34.8811,11.66551,10.12425,26.43197,12.12512,41.30374,9.98937,3.23217-.46417,4.94127-4.5332,4.19064-7.38071-.91093-3.4556-4.18858-4.64906-7.38071-4.19064h0Z"/>
        </g>
      </g>
    </g>
    <g id="Fleur">
      <path class="cls-5" d="M406.4782,616.88201c-2.29482-17.23798,6.35356-34.67839,11.57644-50.69692,6.24177-19.14347,12.46387-38.28949,18.87517-57.37707,11.97562-35.65354,23.14629-71.61234,37.0132-106.59674,9.14541-23.07267,20.49272-45.08115,30.71961-67.66639,10.05824-22.2128,19.66886-44.6695,28.29023-67.48197,4.32018-11.43135,8.47017-22.98368,11.65295-34.791,2.22352-8.2487,4.32872-16.94847,3.00294-25.50439-.70387-4.54241-6.39801-7.05601-10.46085-5.93948-4.84839,1.33241-6.64545,5.9049-5.93948,10.46085-.49506-3.19487-.08339,.65438-.11612,1.62982-.02172,.64729-.09544,1.28904-.13085,1.93484-.13262,2.41889,.23883-.91325-.13673,1.15082-.71994,3.95672-1.5725,7.8608-2.61924,11.74618-2.72815,10.1265-6.19457,20.05629-9.8226,29.89037-8.23573,22.32359-17.56052,44.24849-27.33082,65.93917-10.021,22.24727-21.18576,43.93101-30.44949,66.52008-14.18803,34.59671-25.46486,70.28182-37.25221,105.74023-6.87479,20.68058-13.73663,41.36037-20.47875,62.08494-3.50072,10.76085-7.42552,21.44635-10.54484,32.32326-2.46832,8.60689-4.04713,17.6892-2.85643,26.63339,.60593,4.55157,3.47472,8.50394,8.50394,8.50394,4.12369,0,9.11436-3.91861,8.50394-8.50394h0Z"/>
      <g>
        <path class="cls-3" d="M535.95662,213.09992c1.64511,5.94455,2.14589,11.91109,1.99644,17.90416s-.94914,12.01268-1.90498,18.06338c-.95584,6.05069-2.06784,12.13248-2.8419,18.24989-.77407,6.11742-1.2102,12.27047-.81433,18.46372,.46894,7.33635,1.89445,14.1474,4.16686,20.46797,2.27242,6.32058,5.39175,12.15068,9.24833,17.52515,3.85659,5.37447,8.45043,10.2933,13.67188,14.79132s11.0705,8.57524,17.4375,12.26649c6.74339,3.90946,14.31876,5.90507,22.14931,6.28482s16.00207-2.18076,23.76617-4.73473,15.12079-5.10139,21.66482-9.9931c6.54404-4.89171,13.20712-11.49482,17.37748-18.12828,3.78052-6.01337,4.65342-12.28809,5.06925-19.64089,.41583-7.3528-1.85947-14.29906-3.97716-21.85863s-4.07777-15.73242-7.89779-22.36609-8.28341-12.52123-12.97458-17.09635c-4.83207-4.71253-10.56397-9.70444-16.88033-14.5387-6.31636-4.83426-13.21718-9.51087-20.38707-13.59279-7.1699-4.08192-14.60887-7.56917-22.00155-10.02469s-14.73905-3.87934-21.72376-3.83441"/>
        <path class="cls-5" d="M532.67655,214.00419c4.18633,16.24669,.1032,32.55459-2.24939,48.74267-2.13381,14.68259-2.33525,29.42032,2.57629,43.61126,4.49311,12.98196,12.5735,24.35025,22.77798,33.47938,10.54228,9.43133,23.15226,17.97394,37.38694,20.08974,14.34245,2.13182,29.20324-2.93374,42.26403-8.55643,12.17528-5.24148,24.41422-15.58409,30.5636-27.48808,6.5535-12.68629,4.48653-27.01373,.78143-40.1481-1.95467-6.92921-3.63016-13.99492-6.55239-20.60101-2.83277-6.40387-6.95601-12.33102-11.47232-17.66069-10.40648-12.28065-24.43077-22.4999-38.10643-30.82274-14.91148-9.07495-31.8212-16.55042-49.54506-16.7436-4.37904-.04773-4.38217,6.75539,0,6.80315,28.05773,.30581,55.23964,19.38948,75.10227,37.69251,9.74606,8.98081,17.10073,19.43497,20.93511,32.20118,3.92552,13.06965,8.56472,26.48139,5.07291,40.1795-3.0388,11.921-14.73901,22.67-25.23036,28.34252-5.84575,3.16071-12.34178,5.16533-18.66315,7.14507-7.39843,2.31705-14.78365,4.08398-22.59091,3.18219-13.38107-1.54561-25.29957-9.63779-35.13511-18.42576-9.53894-8.52297-17.24007-19.06382-21.30359-31.27256-5.10601-15.34086-3.71634-30.83997-1.15057-46.50661,2.45985-15.01992,4.96879-30.03341,1.09887-45.05213-1.09165-4.23656-7.65506-2.44074-6.56013,1.80855h0Z"/>
      </g>
      <g>
        <path class="cls-3" d="M541.84206,165.3463c-.59414-12.24577-2.38112-26.85977-5.69082-41.98898-3.30971-15.12922-6.22655-35.24468-12.91161-49.55134-6.52698-12.63885-13.1534-24.09482-25.31636-36.02709-10.72021-9.77808-23.04635-15.49633-38.46136-17.03984-8.10609-.81167-13.94915,6.52371-19.4741,9.73705-5.52495,3.21334-13.8503,4.88008-17.32194,10.64214-3.47163,5.76206-8.9694,12.70822-10.91552,19.54272s-3.43325,14.01717-4.38167,20.44781c-1.24485,8.44052-3.08171,18.21475-2.43426,25.80319s6.87187,12.53123,9.35347,19.43848c2.4816,6.90724,8.78413,14.08651,13.04175,20.48344s6.47031,12.01154,12.4458,18.06904c3.48572,3.53357,6.96334,6.48639,10.51315,9.00668s7.1718,4.60805,10.94627,6.4115,7.70142,3.3226,11.86114,4.70566,8.55222,2.63004,13.25777,3.88915c3.06316,.81964,6.11423,1.12017,9.10588,1.25954s5.92389,.11756,8.74938,.29253,5.54424,.54671,8.10892,1.47316,4.97529,2.40762,7.1845,4.80144"/>
        <path class="cls-5" d="M545.24364,165.3463c-.86231-16.52704-3.76404-32.59328-7.04318-48.77936-2.98089-14.71389-5.32305-30.07876-11.71576-43.79883-12.43507-26.68823-33.22356-50.88768-63.7663-55.03602-7.01651-.95299-12.21888,.785-17.85899,5.00041-5.20101,3.88723-10.21012,6.35302-16.0194,9.17175-6.04324,2.93225-8.87232,7.23192-12.45308,12.69583-4.46047,6.80627-7.58709,13.26478-9.49787,21.1985-1.97761,8.21126-3.2275,16.58827-4.38154,24.94948-.97769,7.08353-2.31283,15.14447,.4039,22.0013,1.08905,2.74867,2.66182,5.20534,4.26131,7.67712,2.17154,3.35581,3.61824,6.8453,5.36053,10.41571,3.36348,6.89266,8.63485,12.63757,12.74239,19.06778,4.5622,7.14197,8.42829,14.0879,14.70855,19.94184,6.82246,6.35933,14.63881,11.4,23.21459,15.05756,8.26186,3.52368,17.45939,6.77477,26.36982,8.10468,9.36782,1.39818,20.18572-1.21783,27.52858,6.13382,3.09801,3.10172,7.90974-1.70766,4.81055-4.81055-4.45311-4.45844-9.78065-6.53423-16.01659-7.13944-8.2122-.79702-15.74022-.69164-23.79901-2.98122-15.25704-4.33467-29.47749-10.63534-40.52391-22.36486-4.85546-5.15571-7.80199-11.56917-11.73995-17.37951-4.02699-5.94171-8.9041-11.43625-11.84051-18.04495-2.55812-5.75731-7.02911-10.91183-9.01454-16.83081-2.35388-7.01741-.06316-16.22138,1.01775-23.26588,1.1003-7.17085,2.28389-14.29355,4.10501-21.32424,1.92278-7.42317,5.81225-13.26397,9.91142-19.63315,3.71664-5.77481,8.32604-7.52557,14.34456-10.27842,5.1374-2.34983,8.96134-6.38857,13.82869-9.13384,6.19009-3.49132,13.94091-1.14834,20.33331,.83665,6.40062,1.98754,12.39326,5.0973,17.78742,9.06918,11.52985,8.48977,19.9193,21.01364,26.7031,33.42839,7.70805,14.10617,10.75163,29.58801,13.86326,45.21824,3.36471,16.90153,6.67219,33.5729,7.57275,50.83284,.22727,4.3558,7.03182,4.3827,6.80315,0h0Z"/>
      </g>
      <g>
        <path class="cls-3" d="M539.31305,206.75569c-3.24079,23.58762-14.13639,41.99919-23.37624,55.46226-9.23985,13.46307-16.72841,24.25017-29.05501,29.25906-12.3266,5.0089-26.11646,.26643-38.6175-1.50846-12.50105-1.77489-23.71329-.58222-33.47647-7.47052-5.13029-3.61961-9.21747-12.65779-15.20879-18.81953-5.99131-6.16174-13.88675-9.44704-19.03162-17.00142s-11.48342-13.66241-14.07436-21.45994-1.43427-17.28457,.23619-24.17577c1.59518-6.58063,5.77668-11.44664,11.49899-14.99742s13.12551-8.19238,20.88394-9.51207,15.8721,.68255,23.57562,.7952,14.85684,.74179,20.41444,1.48802c7.22328,.96989,13.76979,2.42977,19.97018,3.89954s12.05465,2.94944,17.89343,3.95891,9.57294,2.46737,15.71141,2.05635,31.44109,3.44202,38.54054,.65032"/>
        <path class="cls-5" d="M536.03298,205.85142c-2.2632,15.45355-7.81818,29.90346-15.75613,43.31362-6.80552,11.49705-14.52834,24.09619-24.66953,32.92954-5.99505,5.22191-13.15353,8.19005-21.15631,8.20328-8.28423,.01369-16.32354-2.2618-24.46362-3.48572-7.40265-1.11304-15.009-1.03737-22.33704-2.59759-7.50718-1.59835-12.43568-5.0903-16.78228-11.27882-4.01847-5.72134-7.84178-11.23351-13.36855-15.62729-6.05391-4.81286-11.35222-8.82836-15.99058-15.1194-4.48774-6.08675-10.25939-11.94677-12.225-19.45692-1.89135-7.22638-1.223-16.54109,1.54431-23.50292,2.69045-6.76848,9.07003-10.44085,15.09653-13.86235,8.10988-4.60433,15.66629-6.36462,24.97567-5.56973,16.52128,1.41069,32.66307,1.88718,48.90366,5.6482,8.8261,2.04396,17.63146,4.04263,26.52235,5.7866,5.56268,1.09113,11.08124,.72261,16.69397,1.12645,6.01182,.43256,12.01026,1.04769,18.03341,1.31643,4.86128,.2169,10.36666,.61066,15.04823-1.01451,4.11047-1.42692,2.3431-8.00135-1.80855-6.56013-4.6447,1.61237-10.24354,.94301-15.05276,.6788-5.8897-.32357-11.75608-.95379-17.64209-1.32292-1.95708-.12273-3.87222-.1226-5.82838-.09293-4.49472,.06817-8.69101-.97767-13.07368-1.81263-8.96191-1.70737-17.77023-4.03604-26.6946-5.91323-8.23097-1.73134-16.56486-2.86504-24.95991-3.38626-4.58615-.28473-9.18494-.24711-13.76364-.6413-4.84739-.41733-9.70502-1.14832-14.58304-.87156-8.11842,.46061-15.42047,3.87815-22.3069,7.97918-6.23524,3.71323-12.07504,7.84058-15.24499,14.6091-6.621,14.13725-4.16283,30.891,4.95711,43.07454,4.78055,6.38644,9.20118,13.31032,15.47101,18.3407,6.4934,5.20976,12.43713,9.59226,17.2702,16.5187,4.06143,5.82057,7.73261,11.36747,14.30357,14.57001,6.86449,3.3456,14.49498,3.96092,21.98928,4.59271,16.03928,1.35214,33.79069,8.5586,49.46392,1.99111,15.45464-6.4759,25.17432-22.39967,33.89114-35.90197,10.01099-15.50696,17.41599-32.50258,20.10333-50.85224,.6272-4.28263-5.92706-6.13131-6.56013-1.80855h0Z"/>
      </g>
      <g>
        <path class="cls-3" d="M562.74978,202.43373c7.4101,12.46657,18.06128,21.3918,30.67694,27.55209s27.1958,9.55565,42.46383,10.96247,33.65821,4.23308,48.01041,.335,24.66642-14.52049,33.51957-26.37913c9.53091-12.76649,16.36172-29.4066,17.11311-45.1882s-2.56299-35.06808-9.2502-48.19841c-6.68721-13.13033-18.86053-14.66141-31.64542-19.4741s-28.195-8.54361-45.73666,.62771c-7.83288,4.09527-15.77104,9.34352-23.43026,15.44814s-15.03948,13.06562-21.75656,20.58638c-6.71708,7.52076-12.77098,15.6013-17.77747,23.945-5.00649,8.3437-13.85889,17.38853-16.98555,24.68406"/>
        <path class="cls-5" d="M559.81262,204.15057c8.27852,13.56279,20.48424,23.75475,34.96208,30.19819,16.23972,7.22758,33.43784,9.22267,50.93008,10.98446,15.97302,1.60878,33.04465,3.15887,47.91931-4.15202,13.96047-6.86156,25.10112-20.38901,32.69423-33.6776,8.27545-14.48275,12.39991-30.60249,11.60127-47.275-.71495-14.92551-3.46556-33.23196-12.88663-45.38841-8.18851-10.56603-23.59854-14.03774-35.74349-17.91618-15.5807-4.97565-30.89447-3.91606-45.31063,3.99523-17.46234,9.58297-33.07799,22.96656-46.01216,38.05831-6.28065,7.32834-11.58417,15.17544-16.78785,23.27918-5.10006,7.94238-12.17192,14.73732-16.16448,23.36116-1.82741,3.94716,4.03484,7.40692,5.87432,3.43368,2.95235-6.37701,7.71359-11.74356,11.90094-17.32141,4.58204-6.10361,8.28004-12.78872,12.80841-18.93624,9.77612-13.27163,21.70885-25.22942,34.9251-35.07904,12.74863-9.50112,27.02701-18.47341,43.55106-17.09957,6.44462,.53582,12.61827,2.5055,18.65955,4.70819,5.93709,2.1647,12.20882,3.73588,17.87769,6.56465,13.00992,6.49195,16.82274,21.99913,19.09594,35.27595,2.62456,15.32894,1.98224,30.79377-3.72195,45.371-5.42309,13.85886-14.6903,27.17937-26.26019,36.62637-12.23538,9.99039-26.82327,11.34664-42.06461,10.39928-33.9949-2.11301-72.57748-7.06686-91.97368-38.84387-2.27761-3.73143-8.16373-.31709-5.87432,3.43368h0Z"/>
      </g>
      <g>
        <path class="cls-3" d="M573.38018,184.78623c10.64107-3.42233,23.12422-7.69532,35.59878-13.13137,12.47456-5.43606,24.94053-12.03519,35.54722-20.1098s19.35412-17.62471,24.3916-28.96271,6.365-24.4639,2.1319-39.69011c-1.72598-6.20825-3.01935-16.14094-8.57022-22.71812s-15.35926-9.79881-22.92362-15.59446c-7.56435-5.79564-15.56097-6.83193-23.32738-10.69559s-15.30263-10.55468-21.45969-11.3359c-8.58341-1.08908-17.95565-1.40469-24.79131,1.11199s-11.13477,7.86568-16.19999,13.0274c-5.06522,5.16172-9.23955,11.40578-12.51161,18.2518-3.27207,6.84602-2.93817,12.27072-4.39438,19.84032-1.69829,8.828-5.37917,19.01869-5.73771,26.74917-.35854,7.73048-.09845,15.02405,.67775,22.1044,.7762,7.08035,2.06852,13.94748,3.77445,20.82509s3.82546,13.76569,6.2561,20.88794"/>
        <path class="cls-5" d="M574.28445,188.0663c29.73273-9.59848,62.19519-21.23939,84.25035-44.41959,9.5693-10.05743,16.3685-22.42344,18.02597-36.32186,.90165-7.56061,.22618-15.22886-1.53526-22.62129-1.43154-6.0079-2.68188-12.2484-4.96057-18.00026-5.33047-13.45517-19.04714-18.5783-30.3107-26.15872-6.71006-4.5159-14.65242-6.0432-21.80895-9.59767-6.40929-3.18333-11.95233-8.1111-18.67102-10.67367-6.25628-2.38619-14.33777-2.31664-20.91404-1.73522-6.68937,.59143-12.59928,2.58035-17.86543,6.81756-10.74837,8.64828-21.6928,21.72925-24.82681,35.42501-1.85606,8.11105-2.71107,16.32887-4.81256,24.42624-2.16645,8.34769-3.37402,16.19884-3.268,24.84446,.23687,19.31611,4.81179,37.99334,10.97456,56.19928,1.39622,4.12469,7.96942,2.35473,6.56013-1.80855-5.07384-14.98906-9.26688-30.31566-10.39282-46.1625-.46787-6.58496-.83202-13.5962,.15557-20.14784,1.06646-7.07486,3.47853-13.88555,4.94746-20.87648,1.27421-6.06422,1.32976-12.47323,3.43979-18.3398,2.44469-6.79702,6.90757-13.32606,11.75754-18.6124,4.09277-4.46102,8.4356-9.63873,13.88073-12.4625,6.20293-3.21676,13.86042-2.96614,20.64027-2.43492,7.12143,.55798,11.86526,3.5,17.78244,7.23177,6.06601,3.82564,12.26424,6.35082,18.94713,8.85972,6.28623,2.35999,11.18011,6.1295,16.86277,9.56724,5.7292,3.46589,12.59146,6.21279,16.93117,11.51507,3.54812,4.33511,4.96699,10.00106,6.25673,15.33318,1.6517,6.82857,3.57499,13.55051,3.81332,20.62194,.44871,13.31386-4.30763,25.89933-12.71811,36.13563-20.70912,25.20485-54.94445,37.1494-84.95021,46.83602-4.14946,1.33955-2.37469,7.91059,1.80855,6.56013h0Z"/>
      </g>
      <path class="cls-5" d="M539.84839,184.71519c1.70382-11.83817,13.23276-22.03292,20.64122-30.65775,4.16337-4.84693,8.22852-9.74784,11.46272-15.27719,4.32883-7.40078,7.29319-15.52655,11.67579-22.88276,2.30552-3.86983,5.14753-11.11629-.52149-13.97223-4.15919-2.09532-7.96457,3.61536-7.35964,7.3233,1.31228,8.04361,17.35874,3.9741,10.58764-4.65073-2.70136-3.44092-7.48553,1.40325-4.81055,4.81055-.50833-.6475,1.79769-2.61156,.43145-2.5564l-.37791-.01505c1.85346,1.17328,1.72764,1.52543-.37747,1.05643-1.36041-.63193-1.90083-.46091-1.62126,.51305,.14265,.52838,.02853,1.01028-.34237,1.44569-.30828,.93942-.98155,1.77084-1.48272,2.61171-2.51317,4.21667-4.46828,8.76187-6.60892,13.17527-3.9094,8.0601-8.35522,15.24983-14.14876,22.06801-5.00249,5.88723-10.20208,11.60914-14.86622,17.77551-3.87056,5.11718-7.90588,10.92231-8.84165,17.42405-.61635,4.28238,5.93788,6.13198,6.56013,1.80855h0Z"/>
      <path class="cls-5" d="M549.64148,199.04242c5.92652-13.79544,22.22325-20.50319,33.59288-29.02709,7.456-5.58982,14.54104-11.75853,21.8396-17.56002,7.05103-5.60473,15.23896-10.85821,21.28051-17.56716,2.11909-2.35319,.49328-5.45696-2.40528-5.80685,.90626,.1094-.10975,4.11403,1.53795,4.1337,.2891,.00345,1.75778-1.91661-.58471-1.95484-4.37941-.07148-4.3805,6.73166,0,6.80315,3.27583,.05346,7.42373-.90194,7.5631-4.94125,.09955-2.88528-2.3387-5.39083-4.78526-6.51668-7.70149-3.54403-13.19983,8.13607-3.73108,9.27908l-2.40528-5.80685c-6.01172,6.67584-14.25364,11.97991-21.28051,17.56716-7.82032,6.21815-15.36907,13.00236-23.55448,18.72534-11.60262,8.11219-27.0458,15.5143-32.94177,29.23864-1.70961,3.97955,4.14932,7.44905,5.87432,3.43368h0Z"/>
      <path class="cls-5" d="M561.06235,199.67056c15.8054-10.08142,36.16946-8.05291,54.055-9.6953,19.17966-1.76122,36.73191-7.57492,48.00954-24.12351l-5.34244,.68844c.79848,.83862,1.42456,1.79455,1.87825,2.86779l2.37579-4.18434c-2.06725,.82957-4.21108,.45922-6.20115,1.02095-.65673-.19251-1.10943,.13659-1.3581,.98729,.29468-.13739,.60494-.18927,.93077-.15564,2.07612,.91601,.90689-.36614,2.65282-.91337l3.30955,.87479c1.91717,1.65548-.14725-.42894-.61559-.82193-3.33291-2.79668-8.16981,1.99177-4.81055,4.81055-.55411-.46496-.96802-.95622-.15045-.0687,.38687,.41996,.6379,.81598,1.11026,1.15657,1.04261,.75177,2.12949,.83221,3.34791,.48894,2.43307-.68548,3.59197-3.3401,3.44605-5.74548-.29847-4.92014-5.94991-7.30711-10.27508-6.37542-4.62537,.99636-6.92979,6.18322-3.69972,10.01408,3.19178,3.78546,10.04057,2.92526,14.12183,1.28749,1.84278-.73949,2.71531-2.18823,2.37579-4.18434-.43209-2.54036-2.03757-3.93702-3.62783-5.8698-1.48929-1.81006-4.22372-.95315-5.34244,.68844-22.93807,33.65891-69.2689,12.01632-99.62391,31.37816-3.6805,2.3476-.27209,8.23804,3.43368,5.87432h0Z"/>
      <path class="cls-5" d="M556.11911,189.11664c6.54539-4.98912,7.70376,3.4636,2.84237,4.05651-.94462,.11521-1.96866-.23382-2.44841-1.0964-.81588-1.46692,1.09566-2.49763,.82502-3.07537,.89188,1.9039-5.95467,1.55049-6.52148,1.50266l3.40157,3.40157c-.21278-2.7245,2.33027-8.30863,2.35672-2.59687,.02717,5.8662-6.59273,10.24379-12.01234,9.86634-8.10315-.56434-5.82827-17.2898-.47362-20.18188,1.63109-.88097,4.05814-.76753,5.82149-1.50398,1.90472-.79549,3.58312-2.01246,5.23597-3.23363,4.45319-3.29015,8.41897-7.13051,12.41757-10.94367,8.37278-7.98448,16.61817-16.02448,24.30093-24.68714,6.87306-7.74969,13.5202-15.82743,19.71817-24.13069,4.81681-6.45295,10.9302-15.14004,10.75336-23.61755-.104-4.98563-1.66041-11.37398-4.22207-15.67246-2.72932-4.57982-8.15178-3.74616-9.52548,1.48192-1.51173,5.75338,4.48441,7.43802,8.73419,5.22348,5.33698-2.78107,4.30599-8.81082-1.67639-9.62856-4.28138-.58523-6.1336,5.96893-1.80855,6.56013,2.12278,.29017,1.21305,.83418,1.17427-1.37195-.04976-2.83041-.36428-1.4471-.64243-1.6871-.01238-.01068-1.285,.65825-1.2685,.43603l2.04755,2.27651,.38291-.67411-3.62284,.28626c.18514,.26896,.35013,.5495,.49499,.84161,.06732,1.22539,1.27704,3.27144,1.6307,4.50791,2.12065,7.41423,1.1256,12.54181-2.83581,19.41579-5.26865,9.14235-12.56232,17.37311-19.35423,25.40867-7.08839,8.38633-14.62377,16.39431-22.53411,24.00954-7.60794,7.32412-15.45542,17.12293-25.89273,19.86584-7.06284,1.85611-9.40507,9.23707-10.31168,15.78873-.88162,6.37106-.34894,13.64266,6.13555,16.80437,6.54247,3.18997,15.28817,.12113,19.89566-5.03158,4.18538-4.68065,7.3337-17.16918-1.04037-19.70159-6.79003-2.05337-11.1126,6.37628-10.68201,11.88963,.15266,1.9547,1.44228,3.23627,3.40157,3.40157,4.12946,.34841,8.97723-.02303,11.68126-3.60572,2.33124-3.08876,2.70841-8.0937-.55683-10.71386-7.5701-6.07458-15.50558,6.73916-10.72939,13.35951,5.29028,7.33292,16.64547,2.44997,17.73107-5.65504,1.3028-9.7266-9.71766-12.43448-16.2573-7.44974-3.43626,2.61923-.05088,8.53037,3.43368,5.87432h0Z"/>
      <path class="cls-5" d="M539.84839,181.21732c-3.5786-10.42636-9.72235-19.95523-16.42272-28.66055-4.14352-5.38338-9.10698-10.04315-13.21956-15.45335-1.77274-2.33208-3.80626-4.35673-5.92248-6.37943-5.41615-5.17681-12.50742-10.38743-16.18072-17.04204-.48504-.87871-.9075-1.71789-1.00109-1.74195-3.1492-.80974-.12351,2.18636,.16706,1.5768,.16573-.34768-.01162-.83836-.36643-.33678-.26304,.37185-1.54235,1.18539-1.62668,1.45467-.00475,.01517,1.02307-.00562,.84616,.36666,.45286,.52899,.56157,.49619,.32613-.09838-.03492-.68287-.0028-1.36312,.09635-2.04073,.60265-4.282-5.95154-6.13274-6.56013-1.80855-.47044,3.34255-.76736,7.71401,2.69978,9.65186,2.67793,1.49674,5.92407,.29387,8.04258-1.61086,5.66431-5.0927,2.27155-13.11472-5.38679-12.96031-10.26242,.20693-1.62942,13.43054,1.21828,16.6645,5.97739,6.78818,13.54622,12.16449,18.98796,19.39887,5.31598,7.0672,11.64966,13.02706,16.59603,20.42048,4.41294,6.59609,8.54982,12.84317,11.14614,20.40764,1.41305,4.11696,7.98692,2.34843,6.56013-1.80855h0Z"/>
      <path class="cls-5" d="M540.59614,189.40022c-13.68264,8.25072-29.95071,10.84855-44.0979,18.27283-3.59594,1.88711-8.98476,4.94435-8.74622,9.73219,.21869,4.38923,5.24124,6.51979,9.05166,5.20971,10.43176-3.5866-4.14607-19.75505-12.03445-10.06431-3.27245,4.02015-1.33232,11.10161,3.97843,12.20999,5.35912,1.11848,9.42445-4.21746,9.33734-9.07519-.07841-4.37271-6.88181-4.38674-6.80315,0,.1631,.85982-.09051,1.57633-.76081,2.14951l-.23754-1.21213c.72882-.43601,1.38974-.3701,1.98276,.19774,.71792,.27413,1.28817,.7381,1.71073,1.39192,1.16689-1.42281,1.30989-2.10181,.42902-2.03699-.54125-.06959-.46341,.26166,.23354,.99374,.83739-.55665,1.53502-1.38912,2.39719-1.96387,3.38139-2.25415,7.36483-3.88428,11.08015-5.50474,11.87139-5.17781,24.71901-7.67608,35.91293-14.42609,3.74485-2.25817,.32886-8.14316-3.43368-5.87432h0Z"/>
      <path class="cls-5" d="M543.57092,199.26763c7.28478,12.7928,13.79186,25.97857,20.58264,39.0299,1.84555,3.547,4.11757,8.50433,7.72343,10.61183,4.11419,2.4046,7.31538-.71116,8.23625-4.70335,.41668-1.80643-.54707-3.65786-2.37579-4.18434-4.66194-1.34214-10.13572,.91393-9.24386,6.56796,.81467,5.1647,6.33078,6.01064,9.61459,2.44101,2.96009-3.21774-1.83866-8.04111-4.81055-4.81055-1.0366,1.12683,1.02521,1.20307,1.89061,1.39798-.25362-.05712-.35847,.64731,.74066,.96374l-2.37579-4.18434c-.07656,.45474-.19445,.89788-.35367,1.32943l2.11124-.69186c.05814-.1912-.97967-.93128-1.11158-1.21611-.67498-1.4575-1.90509-2.83721-2.70871-4.24924-1.4264-2.50632-2.64992-5.11162-3.93311-7.69134-5.71831-11.49601-11.75867-22.88728-18.11202-34.0444-2.16628-3.8042-8.04624-.38043-5.87432,3.43368h0Z"/>
      <path class="cls-5" d="M550.12846,188.68902c.08092-.30335,.16417-.60494,.2627-.90316,.2295-.69459,.58783-.74606-.16987,.32701,.18059-.25576,1.11368-1.75073,.41164-.83594-.6518,.84932-.0998,.15852,.084-.02281,.10047-.10053,.20511-.19645,.3139-.28777,.34944-.29907,.13579-.13484-.64095,.49268,.25534-.08769,.55669-.33237,.78458-.47279,.90888-.56003-1.34213,.49699-.2117,.07846l-5.83768-1.54303c.65566,.68396-.75383-1.0725-.44853-.59169,.35914,.56559-.52533-1.55819-.287-.71915,.07922,.27891,.18859,1.02664,.02288-.14251-.16572-1.16922-.04984-.42382-.0831-.13399,.00962-.08383,.30666-1.7791,.08838-.84521-.11793,.50455-.56279,.89323,.33277-.74937-.40022,.73408,.99656-1.07425,.52107-.64323-.38749,.35126,1.42464-.91341,.66489-.51776-.04099,.02135,1.58283-.61559,.85898-.40105,.57502-.20187,1.14966-.2307,1.72391-.08647,.64377,.11124,.74778,.12137,.31205,.03038-.73752-.21365,.54009,.23671,.62618,.28178,.74913,.39217,1.27929,1.1932,1.58899,1.94769,.38009,.92599,.3996,1.82861,.17735,2.79269,.21255-.922-.55916,1.18344-.28948,.65914,.29853-.5804-1.04217,1.14467-.35878,.53716l-.77786,.62751c-1.02828,.38079-1.24801,.4749-.6592,.28235,2.98932-.9415,5.2138-4.21903,4.19064-7.38071-.97131-3.00144-4.17483-5.20034-7.38071-4.19064-3.69363,1.16333-6.75845,4.48689-6.5298,8.55179,.25128,4.46727,4.27998,7.98528,8.76019,7.76406,3.73564-.18445,6.80656-2.7169,7.81017-6.31524,.91633-3.2854-.03765-6.8007-2.3787-9.2428-1.37617-1.43558-3.90942-2.25695-5.83768-1.54303-2.27611,.84271-4.39387,1.92981-6.01057,3.79385-1.56698,1.80672-2.58925,3.90353-3.205,6.21175-.80809,3.02925,1.01391,6.65716,4.19064,7.38071,3.14996,.71746,6.51508-.94566,7.38071-4.19064h0Z"/>
      <path class="cls-5" d="M548.56737,195.12942c-6.16658-10.99768-2.56146-25.07253-.83341-36.7897,1.97027-13.35956,5.02593-26.59466,4.93261-40.17399-.02762-4.01891-.54408-8.45312-4.59373-10.44726-3.1493-1.55079-7.32803-.42521-8.61101,3.01557-1.33226,3.57293,1.6741,8.12504,5.54049,8.23366,4.4304,.12447,6.93692-4.99903,6.48576-8.81914-.16466-1.3942-.93089-2.99366-2.4973-3.28007-3.40706-.62297-5.37596,.2875-6.93592,3.38133-1.96628,3.89967,3.90066,7.34799,5.87432,3.43368,.72874-1.03827,.47976-1.12323-.74695-.25487l-2.4973-3.28007c.46572,3.94337,1.27259,7.10868,1.09619,11.10396-.13079,2.96223-.24673,5.95603-.49103,8.90905-.7664,9.26407-2.91565,18.50294-4.31752,27.69518-2.03199,13.32403-5.25419,28.26752,1.72048,40.70636,2.14146,3.81915,8.02015,.39327,5.87432-3.43368h0Z"/>
      <path class="cls-5" d="M549.95007,195.71736c-1.23699-1.34729,3.55443-7.29748,4.8092-8.79377,4.3397-5.17499,9.36389-9.79403,14.40904-14.26591,8.25044-7.31296,17.48101-13.67217,25.45524-21.27059,3.176-3.02632-1.63971-7.83196-4.81055-4.81055-9.5051,9.05714-20.51206,16.52567-30.12619,25.51347-5.59446,5.23-22.72185,19.53442-14.54729,28.43791,2.96746,3.23207,7.76852-1.58882,4.81055-4.81055h0Z"/>
      <path class="cls-5" d="M559.47271,192.7633c7.18272-5.03813,15.04161-8.88387,22.85683-12.82127,5.94727-2.9963,12.76771-8.85967,19.46162-9.68925,4.28826-.53145,4.34153-7.3412,0-6.80315-7.38238,.91491-13.49161,5.75842-19.93019,9.11384-8.74936,4.55967-17.71538,8.63937-25.82194,14.32551-3.55775,2.49549-.16188,8.39633,3.43368,5.87432h0Z"/>
      <path class="cls-5" d="M543.48255,192.41203c1.08793-7.95283,4.13999-15.7803,9.31589-21.99342,4.41686-5.30197,10.58561-8.81754,14.92044-14.17533,2.72978-3.37397-2.05496-8.21642-4.81055-4.81055-4.85828,6.00476-11.76176,9.8972-16.45939,16.11297-5.07124,6.71013-8.38758,14.73205-9.52653,23.05779-.58569,4.2814,5.96848,6.13358,6.56013,1.80855h0Z"/>
      <path class="cls-5" d="M548.84121,188.37695c.19191-7.8105-4.38967-14.58964-8.3791-20.93589-3.88986-6.18787-5.95755-13.32201-9.12787-19.87895-1.90527-3.94052-7.77368-.49462-5.87432,3.43368,2.85127,5.89706,4.75626,12.30718,7.98585,18.01821,3.42378,6.05443,8.77335,11.99351,8.59229,19.36295-.1076,4.37949,6.69559,4.37746,6.80315,0h0Z"/>
      <path class="cls-5" d="M545.25494,187.17052c.49838-4.96832-6.24533-7.82621-9.84381-9.42511-5.21764-2.31834-10.64844-4.09714-16.09021-5.80308-4.18733-1.31269-5.97881,5.25279-1.80855,6.56013,3.84793,1.20629,7.68843,2.44123,11.45221,3.89327,2.20346,.85008,4.39239,1.75965,6.46825,2.89222,.79939,.43614,1.78198,.86808,2.45153,1.49583,.58595,.54937,.51402,.91901,.56742,.38675-.43662,4.35262,6.36957,4.32227,6.80315,0h0Z"/>
      <path class="cls-5" d="M540.62648,194.99785c-3.19398,6.9746-10.62456,11.054-12.65007,18.72992-1.1181,4.23716,5.44228,6.04478,6.56013,1.80855,1.79048-6.78525,9.06712-10.7784,11.96425-17.10478,1.80998-3.9524-4.05174-7.4136-5.87432-3.43368h0Z"/>
      <path class="cls-5" d="M543.52339,188.02953c1.45915,12.64521,16.58497,20.97198,26.4042,26.87601,3.76155,2.26172,7.18572-3.61832,3.43368-5.87432-4.43079-2.66411-8.83639-5.42804-12.90456-8.62839-3.69514-2.9069-9.54615-7.31212-10.13017-12.3733-.49601-4.2985-7.30495-4.34869-6.80315,0h0Z"/>
      <path class="cls-5" d="M553.27341,194.96765c5.68498,.05837,11.82557,1.94211,17.2925,3.36393,3.21025,.83491,5.89134,2.11426,8.85287,3.65858,2.04189,1.06477,4.05885,2.21036,6.17867,3.11303,1.7998,.76639,3.99162,1.1095,5.3566,2.58956,2.97464,3.22546,7.77624-1.5948,4.81055-4.81055-2.98273-3.23423-8.34365-4.38216-12.17444-6.38003-3.37646-1.76092-6.62189-3.48433-10.299-4.48896-6.30418-1.72237-13.43639-3.78114-20.01775-3.84871-4.37898-.04496-4.38235,6.75815,0,6.80315h0Z"/>
      <path class="cls-5" d="M456.66453,259.23838c20.83638-7.99866,39.06677-20.6454,56.87694-33.87168,1.73786-1.29058,.04356-4.24448-1.71684-2.93716-17.54585,13.02999-35.53007,25.64608-56.06437,33.52877-2.02287,.77654-1.14453,4.06656,.90427,3.28007h0Z"/>
      <path class="cls-5" d="M421.60134,212.84747c13.2879,.54459,26.86235-2.42985,40.10919-3.50087,12.68865-1.02589,25.49711-2.05799,37.76239-5.66805,2.09542-.61675,1.20353-3.90046-.90427-3.28007-12.54163,3.6914-25.62206,4.63772-38.59278,5.68593-12.69266,1.02574-25.64076,3.88336-38.37452,3.36149-2.18894-.08971-2.18483,3.31203,0,3.40157h0Z"/>
      <path class="cls-5" d="M552.02977,227.08271c5.37085,26.36069,20.22737,49.48464,26.41369,75.59781,.50442,2.12921,3.78516,1.22779,3.28007-.90427-6.18644-26.11365-21.04302-49.23798-26.41369-75.59781-.43671-2.14343-3.71619-1.23625-3.28007,.90427h0Z"/>
      <path class="cls-5" d="M591.6323,242.40628c13.47022,11.53287,21.86347,27.27283,32.78941,40.98676,1.36368,1.71165,3.75647-.7093,2.40528-2.40528-10.93597-13.72652-19.3007-29.43807-32.78941-40.98676-1.65455-1.41658-4.07149,.97871-2.40528,2.40528h0Z"/>
      <path class="cls-5" d="M582.56152,189.94919c-.15463-.40997-.65565-1.10714-.76393-1.48946l-.78161,1.92072c2.54764-1.45149,9.95962-.11292,12.81188,.02875,3.70991,.18427,7.41407,.46828,11.11307,.80468,8.33334,.75786,16.63697,1.80406,24.96294,2.63431,16.04914,1.6004,32.1001,2.15494,48.01636-.89602,2.14757-.41166,1.23826-3.69077-.90427-3.28007-17.15636,3.28867-34.48587,2.1416-51.73652,.29451-8.00972-.85763-16.00886-1.83004-24.04003-2.47234-4.31869-.34539-8.64781-.60012-12.98007-.68321-2.77547-.05323-6.49692-.77121-8.9602,.63222-.64843,.36944-.98472,1.20357-.78161,1.92072,.16524,.58343,.55906,.94628,.76393,1.48946,.76529,2.02902,4.05478,1.14973,3.28007-.90427h0Z"/>
      <path class="cls-5" d="M647.48395,150.91192c12.44378-1.42961,24.76306-3.96664,37.3435-3.64327,2.18973,.05629,2.1885-3.34532,0-3.40157-12.58451-.32348-24.89747,2.2134-37.3435,3.64327-2.14955,.24695-2.17455,3.6514,0,3.40157h0Z"/>
      <path class="cls-5" d="M573.65538,171.6285c28.72687-20.87565,53.64532-50.75273,67.1788-83.72207,.83066-2.02359-2.4588-2.905-3.28007-.90427-13.17112,32.08658-37.66336,61.37647-65.61557,81.68918-1.7538,1.27448-.05814,4.22702,1.71684,2.93716h0Z"/>
      <path class="cls-5" d="M553.4882,164.23634c9.48425-28.40219,17.52412-57.90917,35.35041-82.47806,1.2873-1.77421-1.66247-3.47367-2.93716-1.71684-17.99076,24.79557-26.12208,54.62794-35.69332,83.29063-.69493,2.08109,2.58905,2.97365,3.28007,.90427h0Z"/>
      <path class="cls-5" d="M534.49025,171.42379c-25.69234-17.27827-54.59135-30.40779-67.70111-60.41458-.87429-2.00115-3.80588-.27156-2.93716,1.71684,13.34411,30.54317,42.75443,44.03741,68.92143,61.6349,1.82148,1.22496,3.52594-1.72052,1.71684-2.93716h0Z"/>
      <path class="cls-5" d="M477.78017,77.54841c8.85974,8.45374,16.76014,17.70203,23.17863,28.15447,6.16822,10.04489,11.05374,20.81425,15.92901,31.52503,.90563,1.98963,3.83819,.26269,2.93716-1.71684-5.06333-11.12391-10.14007-22.31599-16.64998-32.68789-6.42259-10.23278-14.26013-19.35066-22.98954-27.68005-1.58378-1.51121-3.99291,.8904-2.40528,2.40528h0Z"/>
    </g>
  </g>
  <g id="Texte">
    <g>
      <path class="cls-3" d="M146.97272,439.53839c-4.69385,0-7.03955-2.41992-7.03955-7.25977v-64.02002c0-4.76562,2.38184-7.14941,7.1499-7.14941h26.50928c8.50586,0,15.07031,2.03516,19.69141,6.10449,4.61914,4.07031,6.92969,9.77344,6.92969,17.10547,0,5.79395-1.50391,10.5791-4.50977,14.35449-3.00781,3.77832-7.33398,6.3252-12.98047,7.64551,3.74023,1.17383,6.82031,3.99756,9.24023,8.46924l8.25,15.29004c1.24609,2.34766,1.48438,4.50977,.71484,6.49023-.76953,1.97949-2.66016,2.96973-5.66602,2.96973-1.97852,0-3.59375-.42285-4.83984-1.26465-1.24805-.84277-2.34766-2.14551-3.29883-3.90527l-11.11133-20.45996c-1.31836-2.49219-2.87891-4.16113-4.67383-5.00439-1.79883-.84277-4.08984-1.26465-6.875-1.26465h-10.45068v24.63916c0,4.83984-2.34766,7.25977-7.04004,7.25977Zm7.04004-42.34912h17.15967c10.26758,0,15.40039-4.18066,15.40039-12.54004,0-8.28613-5.13281-12.43066-15.40039-12.43066h-17.15967v24.9707Z"/>
      <path class="cls-3" d="M214.73395,439.53839c-2.56836,0-4.40039-.87988-5.5-2.63965-1.10059-1.75977-1.06445-3.88672,.10938-6.37988l29.04004-64.3501c.95215-2.12598,2.10742-3.64648,3.46582-4.56445,1.35547-.91602,2.91406-1.37598,4.6748-1.37598,1.68555,0,3.20703,.45996,4.56445,1.37598,1.35645,.91797,2.51172,2.43848,3.46484,4.56445l29.15039,64.3501c1.17188,2.56738,1.24609,4.71289,.21973,6.43457-1.02734,1.72266-2.78711,2.58496-5.2793,2.58496-2.05469,0-3.64941-.49512-4.78516-1.48535-1.1377-.98926-2.14551-2.51074-3.02539-4.56445l-5.5-12.75977h-37.83984l-5.38965,12.75977c-.9541,2.12793-1.94434,3.66797-2.9707,4.62012-1.02734,.95215-2.49316,1.42969-4.39941,1.42969Zm31.56934-63.13916l-13.96973,33.10889h28.16016l-13.96973-33.10889h-.2207Z"/>
      <path class="cls-3" d="M302.4029,439.53839c-4.40039,0-6.60059-2.27246-6.60059-6.82031v-65.44873c0-2.27246,.56738-4.01562,1.70508-5.22559,1.13672-1.20996,2.62109-1.81543,4.45508-1.81543,1.68652,0,2.95117,.31348,3.79492,.93555,.84277,.62402,1.85156,1.66895,3.02539,3.13477l39.26953,50.93018v-48.28955c0-4.47266,2.2002-6.71094,6.60059-6.71094,4.32617,0,6.48926,2.23828,6.48926,6.71094v65.99951c0,2.05371-.51367,3.66797-1.54004,4.83984-1.02734,1.17188-2.41992,1.75977-4.17969,1.75977-1.6875,0-3.02441-.33008-4.01465-.99023-.99023-.65918-2.07324-1.72168-3.24512-3.18945l-39.27051-51.03955v48.39893c0,4.54785-2.16309,6.82031-6.48926,6.82031Z"/>
      <path class="cls-3" d="M385.5611,438.6585c-4.98828,0-7.48047-2.49219-7.48047-7.48047v-62.58936c0-4.98535,2.49219-7.47949,7.48047-7.47949h21.33984c12.97949,0,23.00684,3.33789,30.08496,10.00977,7.07617,6.67383,10.61523,16.24414,10.61523,28.70996,0,12.39307-3.53906,21.96338-10.61523,28.70947-7.07812,6.74805-17.10547,10.12012-30.08496,10.12012h-21.33984Zm6.59961-11.66016h13.86035c17.8916,0,26.83984-9.05566,26.83984-27.16943,0-18.04004-8.94824-27.05957-26.83984-27.05957h-13.86035v54.229Z"/>
      <path class="cls-3" d="M496.66071,439.75811c-7.48047,0-14.02539-1.64941-19.63574-4.94922-5.60938-3.30078-9.95508-7.9375-13.03516-13.91504-3.0791-5.97656-4.61914-12.99658-4.61914-21.06494,0-8.13965,1.54004-15.17969,4.61914-21.12012,3.08008-5.93945,7.40625-10.54102,12.98047-13.80469,5.57227-3.2627,12.13574-4.89453,19.69043-4.89453,7.55176,0,14.11523,1.63184,19.68945,4.89453,5.57227,3.26367,9.90039,7.86523,12.98047,13.80469,3.08008,5.94043,4.61914,12.94434,4.61914,21.00977,0,8.14062-1.53906,15.19873-4.61914,21.17529-3.08008,5.97754-7.4082,10.61426-12.98047,13.91504-5.57422,3.2998-12.1377,4.94922-19.68945,4.94922Zm0-12.09961c7.11133,0,12.64941-2.45605,16.60938-7.37012,3.95996-4.91211,5.94043-11.73193,5.94043-20.45947,0-8.7998-1.96289-15.62012-5.88574-20.45996-3.92383-4.83984-9.47852-7.25977-16.66406-7.25977-7.11426,0-12.65039,2.41992-16.61035,7.25977s-5.94043,11.66016-5.94043,20.45996c0,8.72754,1.98047,15.54736,5.94043,20.45947,3.95996,4.91406,9.49609,7.37012,16.61035,7.37012Z"/>
    </g>
    <g>
      <path class="cls-3" d="M342.87946,554.1419c-4.69336,0-7.04004-2.41992-7.04004-7.25977v-64.02051c0-4.76562,2.38281-7.14941,7.15039-7.14941h26.50977c8.50586,0,15.07031,2.12793,19.69043,6.37988,4.62012,4.25391,6.92969,10.19336,6.92969,17.82031s-2.30957,13.58496-6.92969,17.875-11.18457,6.43457-19.69043,6.43457h-19.58008v22.66016c0,4.83984-2.34766,7.25977-7.04004,7.25977Zm7.04004-41.03027h17.37988c10.12012,0,15.18066-4.39941,15.18066-13.19922,0-8.72656-5.06055-13.09082-15.18066-13.09082h-17.37988v26.29004Z"/>
      <path class="cls-3" d="M441.77008,554.36163c-7.48047,0-14.02539-1.64941-19.63574-4.94922-5.60938-3.30078-9.95508-7.9375-13.03516-13.91504-3.0791-5.97656-4.61914-12.99707-4.61914-21.06543,0-8.13965,1.54004-15.17969,4.61914-21.12012,3.08008-5.93945,7.40625-10.54102,12.98047-13.80469,5.57227-3.2627,12.13574-4.89453,19.69043-4.89453,7.55176,0,14.11523,1.63184,19.68945,4.89453,5.57227,3.26367,9.90039,7.86523,12.98047,13.80469,3.08008,5.94043,4.61914,12.94434,4.61914,21.00977,0,8.14062-1.53906,15.19922-4.61914,21.17578-3.08008,5.97754-7.4082,10.61426-12.98047,13.91504-5.57422,3.2998-12.1377,4.94922-19.68945,4.94922Zm0-12.09961c7.11133,0,12.64941-2.45605,16.60938-7.37012,3.95996-4.91211,5.94043-11.73242,5.94043-20.45996,0-8.7998-1.96289-15.62012-5.88574-20.45996-3.92383-4.83984-9.47852-7.25977-16.66406-7.25977-7.11426,0-12.65039,2.41992-16.61035,7.25977s-5.94043,11.66016-5.94043,20.45996c0,8.72754,1.98047,15.54785,5.94043,20.45996,3.95996,4.91406,9.49609,7.37012,16.61035,7.37012Z"/>
      <path class="cls-3" d="M525.58942,554.36163c-10.63379,0-18.75488-2.7666-24.36523-8.30469-5.61035-5.53613-8.41504-13.73145-8.41504-24.58496v-39.49023c0-4.76562,2.3457-7.15039,7.04004-7.15039,4.69238,0,7.04004,2.38477,7.04004,7.15039v39.37988c0,6.96777,1.59473,12.19336,4.78516,15.67578,3.18945,3.4834,7.82715,5.22461,13.91504,5.22461,12.3916,0,18.58984-6.96582,18.58984-20.90039v-39.37988c0-4.76562,2.3457-7.15039,7.04004-7.15039,4.62012,0,6.92969,2.38477,6.92969,7.15039v39.49023c0,10.85352-2.75,19.04883-8.25,24.58496-5.5,5.53809-13.60352,8.30469-24.30957,8.30469Z"/>
      <path class="cls-3" d="M581.5777,554.1419c-4.69336,0-7.04004-2.41992-7.04004-7.25977v-64.02051c0-4.76562,2.38281-7.14941,7.15039-7.14941h26.50977c8.50586,0,15.07031,2.03516,19.69043,6.10449,4.62012,4.07031,6.92969,9.77344,6.92969,17.10547,0,5.79395-1.50391,10.5791-4.50977,14.35449-3.00781,3.77832-7.33398,6.3252-12.98047,7.64551,3.74023,1.17383,6.82031,3.99805,9.24023,8.46973l8.25,15.29004c1.24609,2.34766,1.48535,4.50977,.71484,6.49023-.76953,1.97949-2.65918,2.96973-5.66504,2.96973-1.97949,0-3.59375-.42285-4.83984-1.26465-1.24805-.84277-2.34766-2.14551-3.2998-3.90527l-11.11035-20.45996c-1.31934-2.49219-2.87891-4.16113-4.6748-5.00488-1.79785-.84277-4.08887-1.26465-6.875-1.26465h-10.4502v24.63965c0,4.83984-2.34766,7.25977-7.04004,7.25977Zm7.04004-42.34961h17.16016c10.2666,0,15.40039-4.18066,15.40039-12.54004,0-8.28613-5.13379-12.43066-15.40039-12.43066h-17.16016v24.9707Z"/>
    </g>
    <g>
      <path class="cls-3" d="M288.75202,668.74542c-4.69434,0-7.04004-2.41992-7.04004-7.25977v-59.40039h-21.4502c-4.0332,0-6.0498-1.97949-6.0498-5.93945,0-3.88672,2.0166-5.83008,6.0498-5.83008h56.98047c4.03223,0,6.0498,1.94336,6.0498,5.83008,0,3.95996-2.01758,5.93945-6.0498,5.93945h-21.4502v59.40039c0,4.83984-2.34766,7.25977-7.04004,7.25977Z"/>
      <path class="cls-3" d="M361.35163,668.96514c-7.48047,0-14.02539-1.64941-19.63574-4.94922-5.60938-3.30078-9.95508-7.9375-13.03516-13.91504-3.0791-5.97656-4.61914-12.99707-4.61914-21.06543,0-8.13965,1.54004-15.17969,4.61914-21.12012,3.08008-5.93945,7.40625-10.54102,12.98047-13.80469,5.57227-3.2627,12.13574-4.89453,19.69043-4.89453,7.55176,0,14.11523,1.63184,19.68945,4.89453,5.57227,3.26367,9.90039,7.86523,12.98047,13.80469,3.08008,5.94043,4.61914,12.94434,4.61914,21.00977,0,8.14062-1.53906,15.19922-4.61914,21.17578-3.08008,5.97754-7.4082,10.61426-12.98047,13.91504-5.57422,3.2998-12.1377,4.94922-19.68945,4.94922Zm0-12.09961c7.11133,0,12.64941-2.45605,16.60938-7.37012,3.95996-4.91211,5.94043-11.73242,5.94043-20.45996,0-8.7998-1.96289-15.62012-5.88574-20.45996-3.92383-4.83984-9.47852-7.25977-16.66406-7.25977-7.11426,0-12.65039,2.41992-16.61035,7.25977s-5.94043,11.66016-5.94043,20.45996c0,8.72754,1.98047,15.54785,5.94043,20.45996,3.95996,4.91406,9.49609,7.37012,16.61035,7.37012Z"/>
      <path class="cls-3" d="M445.17047,668.96514c-10.63379,0-18.75488-2.7666-24.36523-8.30469-5.61035-5.53613-8.41504-13.73145-8.41504-24.58496v-39.49023c0-4.76562,2.3457-7.15039,7.04004-7.15039,4.69238,0,7.04004,2.38477,7.04004,7.15039v39.37988c0,6.96777,1.59473,12.19336,4.78516,15.67578,3.18945,3.4834,7.82715,5.22461,13.91504,5.22461,12.3916,0,18.58984-6.96582,18.58984-20.90039v-39.37988c0-4.76562,2.3457-7.15039,7.04004-7.15039,4.62012,0,6.92969,2.38477,6.92969,7.15039v39.49023c0,10.85352-2.75,19.04883-8.25,24.58496-5.5,5.53809-13.60352,8.30469-24.30957,8.30469Z"/>
      <path class="cls-3" d="M520.84918,668.96514c-4.91406,0-9.69922-.5498-14.35547-1.64941-4.65723-1.10059-8.70898-2.75-12.1543-4.9502-1.68848-1.09961-2.71387-2.45605-3.08008-4.07031-.36816-1.6123-.23926-3.13477,.38477-4.56445,.62207-1.43066,1.6123-2.41992,2.96973-2.9707,1.35645-.5498,2.91504-.27441,4.6748,.8252,3.22656,1.9082,6.63672,3.2998,10.23047,4.18066,3.5918,.87988,7.37012,1.31934,11.33008,1.31934,5.79199,0,10.00977-.9707,12.64941-2.91504,2.64062-1.94141,3.95996-4.45508,3.95996-7.53516,0-2.56543-.93457-4.58203-2.80469-6.0498-1.87012-1.46582-5.0791-2.67578-9.625-3.62988l-12.09961-2.53027c-13.78809-2.93164-20.68066-10.00977-20.68066-21.22949,0-4.83984,1.28223-9.05664,3.85059-12.65039,2.56543-3.5918,6.12207-6.37988,10.66992-8.35938,4.5459-1.98047,9.79004-2.96973,15.72949-2.96973,4.40039,0,8.58008,.54883,12.54004,1.64941,3.95996,1.09961,7.5166,2.71387,10.66992,4.83984,1.4668,1.02832,2.34668,2.29297,2.64062,3.79492,.29199,1.50391,.10938,2.89844-.5498,4.18066-.66016,1.2832-1.70508,2.16309-3.13574,2.63965-1.42969,.47754-3.09863,.16504-5.00488-.93555-2.71387-1.53906-5.46387-2.63965-8.25-3.2998-2.78711-.66016-5.79395-.98926-9.01953-.98926-5.06055,0-9.02051,1.06348-11.87988,3.18945-2.86035,2.12793-4.29004,4.91406-4.29004,8.36035,0,2.63965,.87988,4.74902,2.63965,6.3252,1.75977,1.57715,4.7666,2.80469,9.02051,3.68457l11.98926,2.53027c7.26074,1.54004,12.66699,3.95996,16.22559,7.25977,3.55566,3.2998,5.33496,7.7002,5.33496,13.2002,0,4.62012-1.24805,8.68945-3.74023,12.20996-2.49414,3.51953-6.0332,6.25293-10.61523,8.19434-4.58398,1.94238-9.99219,2.91504-16.22461,2.91504Z"/>
    </g>
  </g>
</svg>