<?xml version="1.0" encoding="UTF-8"?>
<svg xmlns="http://www.w3.org/2000/svg" viewBox="0 0 775.76009 806.36481">
  <defs>
    <style>
      .cls-1, .cls-2 {
        fill: #fff;
      }

      .cls-3 {
        fill: #0b382c;
      }

      .cls-4 {
        fill: #277c66;
      }

      .cls-5 {
        fill: #2d3a5b;
      }

      .cls-2 {
        stroke: #fff;
        stroke-miterlimit: 10;
        stroke-width: 28.34646px;
      }
    </style>
  </defs>
  <g id="Calque_2" data-name="Calque 2">
    <path class="cls-2" d="M693.33564,203.14135c1.98401-3.6897,3.71667-7.42767,5.17896-11.11481,8.54102-21.53589,7.34302-46.9682-.97827-68.44849-4.12598-10.65082-10.33496-17.99304-20.99829-22.38037-10.61572-4.3678-22.1543-8.66193-33.64087-10.19135-.32043-3.16907-.85425-6.31903-1.59302-9.41937-1.43152-6.00787-2.68188-12.24841-4.96045-18.00024-5.33057-13.4552-19.04724-18.57831-30.31079-26.15875-6.70996-4.51587-14.65234-6.04321-21.80884-9.59766-6.40942-3.18335-11.95239-8.11108-18.67114-10.67365-6.25623-2.38623-14.33765-2.31665-20.91406-1.73523-6.68933,.59143-12.59924,2.58032-17.86536,6.81757-10.74841,8.64825-21.69275,21.72925-24.82678,35.42499-.34619,1.513-.65088,3.0304-.94189,4.54932-4.76733-1.51233-9.57471-2.93402-14.42261-4.25818-5.34143-9.46112-11.95117-18.18677-19.97498-25.69812-7.74829-7.25342-17.2677-12.66455-27.47131-15.5719-4.83539-1.37775-10.43848-2.74286-15.48413-2.47888-4.98248,.26068-9.18335,2.8866-13.04779,5.81274-3.4212,2.59058-6.65173,4.86975-10.60358,6.61157-4.6109,2.03229-9.47552,3.90729-12.75519,7.93207-2.64673,3.24799-4.96527,6.69446-6.97186,10.29858C177.39295,48.91289,14.17323,214.63433,14.17323,418.48473c0,206.39258,167.31421,373.70685,373.70679,373.70685s373.70685-167.31427,373.70685-373.70685c0-80.18787-25.26013-154.47375-68.25122-215.34338Z"/>
  </g>
  <g id="logo">
    <circle class="cls-5" cx="387.88003" cy="418.48473" r="373.70683"/>
    <path class="cls-3" d="M387.88002,792.19158c185.11993,0,338.7973-134.60315,368.51056-311.27582-5.72339,2.74683-11.34985,4.26813-16.61646,3.78571-14.88989-1.36389-36.7876-23.07538-48.80103-30.94989-13.26135-8.6925-51.28052-41.38025-65.3374-41.57129-15.53796-.21112-49.5271,38.75885-61.33813,48.0611-21.3075,16.78168-28.23547,28.87842-52.53027,12.36011-20.21313-13.74304-26.89771-37.88202-49.26855-26.38251-17.04541,8.76202-34.8913,38.51306-48.21661,52.93896-16.64148,18.01605-34.18622,33.19556-53.14844,48.76343-14.81165,12.16028-45.51636,45.31091-64.6167,42.96014-31.87738-3.92334-61.0257-70.3385-75.18604-94.60742-6.59766-11.3075-21.39783-41.724-33.02362-46.33386-14.9483-5.92725-37.85236,15.13177-52.87079,22.2005-19.20209,9.03778-36.24768,20.82135-52.32721,8.53717-13.1524-10.04791-20.62616-35.61237-31.56049-48.47638-14.03937-16.51709-25.19733-24.24261-37.19049-25.354-.11823,3.86517-.18512,7.74335-.18512,11.63721,0,206.39258,167.31421,373.70685,373.70679,373.70685Z"/>
    <path class="cls-4" d="M475.18196,775.87871c-19.37317-37.80988-42.77271-73.86304-66.9375-108.75171-6.72833-9.71423-13.59326-19.33154-20.54254-28.88867-6.09589-8.38354-11.86548-16.7876-13.60876-27.18573-.72003-4.29504-5.05994-7.08368-9.27777-7.40558-19.83087-58.77539-20.22687-123.35541-17.60413-184.63977,3.1076-72.61658,12.71533-145.27637,9.89478-218.05188-.68909-17.78058-.87573-37.04346-7.42169-53.82281-5.6239-14.41595-15.61932-26.24158-25.34198-38.09094,4.211-5.44244,6.46729-12.45166,5.75867-19.36035-1.41498-13.79553-14.62329-23.77722-28.26318-20.1463-1.88373,.50146-3.70038,1.23804-5.41205,2.16907-3.14563,.73358-5.66235,3.08478-7.44135,6.05328-2.15112,2.53278-3.7923,5.46045-4.73511,8.59088-2.0036,3.55334-3.02557,7.69525-2.6286,11.96265,1.242,13.35278,14.06952,22.69708,27.1402,20.42712,1.69489-.29437,3.32623-.77527,4.88177-1.41364,8.33221,10.09326,17.31,20.25104,22.47546,32.31146,6.2298,14.54541,6.46387,31.32184,7.19244,46.88702,1.646,35.16522-.02161,70.41541-2.24658,105.51672-1.82727,28.82684-4.1955,57.73901-5.98584,86.67731-4.94617-7.20129-10.46356-14.02789-16.10425-20.69171-6.71381-7.93164-13.67804-15.67743-20.86926-23.18622-.42676-1.46863-1.49396-2.79572-2.87872-3.65857,1.40979-.83728,2.3457-2.44006,2.67365-4.10425,10.50787-11.10321,13.99084-26.70416,13.98669-41.81146-.00464-16.79749-2.84766-35.16827-8.19916-51.10889-6.22137-18.53174-17.99591-34.22607-32.0365-47.60413-8.99011-8.56598-20.51324-17.22986-32.40503-21.1192-5.50439-1.80029-12.06989-1.78442-15.68146,3.44135-3.01123,4.35712-2.83752,10.09912-2.24963,15.13721,1.41595,12.13434,6.58643,23.36597,8.3949,35.33539,.00006,.0141-.00043,.02142-.00012,.03802,.00677,.40045,.00092,.78345-.03851,1.18713-.10681,1.09253-.12915,2.20227-.18799,3.29791-.13666,2.54535-.25391,5.0918-.34351,7.63928-.20331,5.78192-.27264,11.5697-.14465,17.35419,.02277,1.02911,.0611,2.06049,.09558,3.09137-24.66229-13.13507-57.60468,3.13007-82.57263,9.79541-3.01202,.80408-5.21118,4.31396-4.19061,7.38074,7.6037,22.84979,27.96515,40.94879,46.23608,55.5199,18.82642,15.01404,41.77472,32.89069,66.98718,32.95807,13.81287,.03699,26.00043-5.97797,36.66992-14.1615,6.21191,6.54364,12.24982,13.26349,18.11017,20.11627,5.35638,6.26343,10.60205,12.64966,15.32489,19.40955,3.28235,4.69806,7.32996,10.03998,8.26862,15.84644,.00421,.02594,.01135,.04871,.01581,.07434-1.90234,37.71869-2.37982,75.4585,1.06183,113.08905,2.47443,27.05573,7.11566,53.86737,15.12036,79.71552-3.52008-2.32465-7.09583-4.49225-10.52515-6.58478-17.96368-10.96112-35.1275-23.28442-52.3764-35.33258-18.48523-12.91174-36.16541-26.57306-56.14313-37.18695-16.17645-8.59424-33.05035-15.78717-50.07843-22.52545,2.67548-26.49512-8.35883-52.37561-24.3634-73.19836-14.98474-19.49591-36.74792-39.06958-61.8053-43.4422-2.94788-.5144-6.78363,.75909-7.38068,4.19067-2.10101,12.07526,.9657,24.45569,5.15961,35.76752,4.07935,11.00293,9.28766,21.96619,16.27026,31.44562,9.73584,13.21716,23.61334,22.1084,36.60712,31.87726-3.31885-1.01862-6.67236-1.91504-10.07806-2.61737-12.82001-2.64374-25.93909-3.29431-38.84644-5.36987,1.18817-8.63342-6.03937-16.07214-14.01178-18.12708-12.95911-3.34033-37.27374,4.76111-29.54913,22.05817-.83911,1.6579-1.474,3.36981-1.8338,5.10101-1.711,8.23193,2.68304,13.94434,9.1972,17.03064,.98193,.60419,2.07538,1.02112,3.23816,1.27209,12.73425,4.04291,30.27722-.46716,29.56537-14.18066,10.49316,1.67413,21.10211,2.43768,31.59631,4.07764,11.28979,1.76428,21.68274,5.32336,32.31964,9.37677,19.56464,7.45551,39.11298,15.02881,57.9071,24.29596,19.41522,9.57336,37.3551,21.56335,54.97772,34.07355-32.34863,16.47711-68.97296,34.31421-83.32709,69.49902-.78601-.68268-1.64594-1.28937-2.60736-1.77362-10.11938-5.09674-23.70776,4.71179-26.53839,14.45319-2.40948,8.29193,1.16486,16.76666,6.68756,23.15045,.77826,1.55884,1.83179,2.98871,3.20032,4.23206,3.73572,4.26239,8.87927,6.9978,14.61963,6.38196,6.62115,.89227,12.93152-1.65247,15.96936-9.68414,.61835-1.63477,.37018-3.01923-.36328-4.06165,1.2301-3.31702,1.87469-6.89331,1.94818-10.33301,1.44513-3.09259,1.92645-6.48151,.99188-9.93225-.79559-2.93744-2.64349-5.47595-5.03589-7.42139,.10132-.19537,.19629-.39862,.27924-.61603,13.22284-34.65985,52.56055-51.40338,83.49805-67.2193,14.40692,10.37408,28.73901,20.87097,43.63495,30.44519,7.4765,4.80542,15.26086,9.12067,22.54138,14.23145,3.67957,2.58289,7.64569,5.54639,10.85254,9.05737,5.21381,15.8349,17.38861,29.27441,26.80194,42.59961,12.25964,17.35437,24.14142,34.97815,35.5296,52.91736,13.60126,21.42535,27.26666,43.27264,38.72003,66.11072,6.90503-1.29852,13.74292-2.7865,20.50818-4.45923-.88672-1.80713-1.78101-3.60992-2.69751-5.39868Z"/>
    <g id="tige">
      <path class="cls-4" d="M372.75689,613.76543c-2.29482-17.23798,6.35356-34.67839,11.57644-50.69692,6.24177-19.14347,12.46387-38.28949,18.87517-57.37707,11.97562-35.65354,23.14629-71.61234,37.0132-106.59674,9.14541-23.07267,20.49272-45.08115,30.71961-67.66639,10.05824-22.2128,19.66886-44.6695,28.29023-67.48197,4.32018-11.43135,8.47017-22.98368,11.65295-34.791,2.22352-8.2487,4.32872-16.94847,3.00294-25.50439-.70387-4.54241-6.39801-7.05601-10.46085-5.93948-4.84839,1.33241-6.64545,5.9049-5.93948,10.46085-.49506-3.19487-.08339,.65438-.11612,1.62982-.02172,.64729-.09544,1.28904-.13085,1.93484-.13262,2.41889,.23883-.91325-.13673,1.15082-.71994,3.95672-1.5725,7.8608-2.61924,11.74618-2.72815,10.1265-6.19457,20.05629-9.8226,29.89037-8.23573,22.32359-17.56052,44.24849-27.33082,65.93917-10.021,22.24727-21.18576,43.93101-30.44949,66.52008-14.18803,34.59671-25.46486,70.28182-37.25221,105.74023-6.87479,20.68058-13.73663,41.36037-20.47875,62.08494-3.50072,10.76085-7.42552,21.44635-10.54484,32.32326-2.46832,8.60689-4.04713,17.6892-2.85643,26.63339,.60593,4.55157,3.47472,8.50394,8.50394,8.50394,4.12369,0,9.11436-3.91861,8.50394-8.50394h0Z"/>
    </g>
    <path id="pétales" class="cls-1" d="M691.56221,118.40093c-6.68726-13.13031-18.8606-14.66138-31.64551-19.47406-6.13306-2.30872-12.87012-4.36847-20.15698-4.87439l-.00732,.00708c-.25903-4.54498-1.03833-9.2998-2.42407-14.28394-1.72595-6.20825-3.01929-16.14093-8.57019-22.71808-5.5509-6.57721-15.35925-9.79883-22.92358-15.59448s-15.56091-6.83191-23.32739-10.69556c-7.76648-3.86371-15.30261-10.55469-21.45972-11.33594-8.58337-1.08905-17.95569-1.40466-24.79126,1.112-6.83569,2.51666-11.13477,7.86566-16.20007,13.0274-5.06519,5.16174-9.2395,11.40576-12.51147,18.25183-3.27222,6.84601-2.93823,12.27069-4.39453,19.84027-1.42651,7.41541-4.24487,15.78699-5.32495,22.85968-.24939-.0188-.49585-.02356-.7395-.01605-1.95007-8.48535-4.30811-16.84241-7.56738-23.81732-6.52686-12.63885-13.15332-24.09479-25.31628-36.0271-10.72021-9.77808-23.04639-15.49634-38.46136-17.03986-8.10608-.81165-13.94916,6.52374-19.47412,9.73706-5.52496,3.21338-13.85028,4.88013-17.3219,10.64215-3.47168,5.76208-8.96942,12.70825-10.91553,19.54272-1.94617,6.83447-3.43329,14.01715-4.38171,20.44781-1.24481,8.44055-3.08167,18.21478-2.43427,25.80322,.64746,7.58838,6.87189,12.53119,9.35352,19.43848,2.48157,6.90723,8.78412,14.08649,13.04175,20.4834,4.25757,6.39697,6.47028,12.01154,12.4458,18.06903,3.48572,3.53357,6.96332,6.48639,10.51312,9.00671,3.5498,2.52026,7.17181,4.60803,10.94629,6.4115,2.67358,1.2774,5.42993,2.40686,8.28497,3.45172v.47949c-2.12549-.50208-4.26959-1.01666-6.46741-1.53766-6.20038-1.46979-12.74689-2.92969-19.97015-3.89954-5.55762-.74628-12.71094-1.37537-20.41449-1.48804-7.70349-.11267-15.8172-2.11487-23.57562-.79523-7.75842,1.3197-15.16162,5.9613-20.88391,9.51208-5.72235,3.55078-9.90381,8.41681-11.49902,14.99744-1.67047,6.89117-2.82709,16.37823-.23615,24.17578,2.59088,7.79749,8.92944,13.90552,14.07434,21.4599,5.14484,7.55438,13.04028,10.83972,19.03162,17.00146s10.07849,15.19989,15.2088,18.81952c9.76318,6.88831,20.9754,5.69562,33.47644,7.47052,12.50104,1.77484,26.29095,6.51733,38.61749,1.50842,12.32654-5.00885,19.81519-15.79596,29.05505-29.25903,6.66943-9.71783,14.18481-22.02863,19.07495-36.99115,.93652-.17682,1.88159-.31195,2.8335-.42316,.12598,2.06384,.15942,4.13043,.10779,6.20044-.14954,5.99304-.9491,12.01263-1.90491,18.06335-.95593,6.05072-2.06787,12.13251-2.84204,18.24988-.77393,6.11743-1.21021,12.27051-.81421,18.46375,.46887,7.33636,1.89441,14.1474,4.16675,20.46796,2.27246,6.32062,5.39185,12.1507,9.24841,17.52515,3.85657,5.37451,8.45044,10.29333,13.67188,14.79132,5.22144,4.49805,11.07043,8.57526,17.4375,12.26654,6.74329,3.90942,14.31873,5.90503,22.14929,6.28479s16.00208-2.18079,23.76611-4.73474c7.76416-2.55396,15.12085-5.10138,21.66479-9.9931,6.54419-4.89172,13.20728-11.49481,17.37756-18.1283,3.78052-6.01337,4.65344-12.28809,5.06921-19.64087s-1.85938-14.29907-3.97705-21.85864c-2.11768-7.55951-4.07788-15.73242-7.89783-22.36609-3.82007-6.63367-8.28345-12.52118-12.97461-17.09631-.65869-.6424-1.33801-1.29102-2.02942-1.94275,14.35876,1.45282,30.76807,3.47662,43.83643-.07275,14.35229-3.89807,24.6665-14.52045,33.51953-26.37909,9.53101-12.76654,16.36182-29.40662,17.11316-45.18823s-2.56299-35.06805-9.25012-48.19843Z"/>
    <g id="traits_fleurs" data-name="traits fleurs">
      <path class="cls-4" d="M697.53633,123.57805c-4.12598-10.65082-10.33496-17.99304-20.99829-22.38037-10.61572-4.3678-22.1543-8.66193-33.64087-10.19135-.32043-3.16907-.85425-6.31903-1.59302-9.41937-1.43152-6.00787-2.68188-12.24841-4.96045-18.00024-5.33057-13.4552-19.04724-18.57831-30.31079-26.15875-6.70996-4.51587-14.65234-6.04321-21.80884-9.59766-6.40942-3.18335-11.95239-8.11108-18.67114-10.67365-6.25623-2.38623-14.33765-2.31665-20.91406-1.73523-6.68933,.59143-12.59924,2.58032-17.86536,6.81757-10.74841,8.64825-21.69275,21.72925-24.82678,35.42499-1.85608,8.11108-2.71118,16.32886-4.81262,24.42627l-.00964,.03943c-6.08813-18.7265-15.99854-36.28119-30.51721-49.87268-7.74829-7.25342-17.2677-12.66455-27.47131-15.5719-4.83539-1.37775-10.43848-2.74286-15.48413-2.47888-4.98248,.26068-9.18335,2.8866-13.04779,5.81274-3.4212,2.59058-6.65173,4.86975-10.60358,6.61157-4.6109,2.03229-9.47552,3.90729-12.75519,7.93207-7.32788,8.99255-12.1781,19.48785-14.68408,30.72235-2.60596,11.68262-5.4856,24.94312-4.84692,36.9646,.24799,4.66699,1.74414,8.67371,4.16461,12.62653,3.00073,4.90051,5.24579,9.95978,8.04541,14.9408,3.36816,5.99243,7.94629,11.1889,11.63007,16.9765,3.18689,5.00696,5.89789,10.26685,9.74701,14.82568,3.66266,4.33795,7.87994,8.08472,12.45856,11.33435-5.44568-.86566-10.92883-1.47693-16.43909-1.81903-4.58618-.28473-9.18494-.24707-13.76361-.6413-4.84741-.4173-9.70508-1.14832-14.58307-.87158-8.11841,.46063-15.42047,3.87817-22.30688,7.97919-6.23523,3.71326-12.07507,7.84058-15.245,14.60913-6.62103,14.13721-4.16284,30.89099,4.95709,43.07452,4.78058,6.38641,9.20117,13.3103,15.47101,18.3407,6.49341,5.20978,12.43713,9.59229,17.2702,16.51868,4.06146,5.82062,7.7326,11.36749,14.30359,14.57001,6.8645,3.34564,14.495,3.96094,21.98926,4.59271,16.03931,1.35217,33.79065,8.55859,49.46399,1.99115,15.45459-6.47589,25.17432-22.39972,33.89111-35.90198,4.53296-7.02148,8.5238-14.35126,11.79211-21.97064-1.30066,17.85083-7.00488,35.7536-4.87012,53.75391,2.71545,22.896,15.53552,41.92657,33.77686,55.56622,9.16565,6.85352,18.94788,12.52124,30.43176,14.12628,12.17017,1.70099,23.68237-1.97137,35.04688-5.98987,19.62134-6.93817,38.88818-22.6123,41.28674-44.45007,1.46619-13.34979-2.9259-26.64264-7.01819-39.22137-2.98755-9.18286-7.90369-17.4057-14.09973-24.6601,1.224,.104,2.448,.20746,3.66907,.31104,11.65918,.98926,24.09155,1.57941,35.3147-2.35046,20.86816-7.30713,36.54358-28.63373,44.41602-48.48401,8.54102-21.53589,7.34302-46.9682-.97827-68.44849Zm-196.3728-28.56293c1.06653-7.07489,3.47852-13.88556,4.94751-20.87653,1.27417-6.06421,1.32983-12.47321,3.43982-18.33978,2.4447-6.797,6.90759-13.32605,11.75745-18.61243,4.09277-4.461,8.43567-9.63873,13.88086-12.46246,6.20288-3.2168,13.86035-2.96619,20.64014-2.43494,7.12158,.55798,11.86523,3.5,17.78247,7.23175,6.06604,3.82568,12.26428,6.35083,18.94714,8.85974,6.28625,2.35999,11.18005,6.12952,16.86279,9.56726,5.72913,3.46588,12.59143,6.21277,16.93115,11.51508,3.54822,4.33508,4.96692,10.00104,6.25671,15.33313,1.65173,6.82861,3.57495,13.55054,3.81335,20.62195,.44873,13.3139-4.30762,25.89935-12.71814,36.13568-16.97632,20.6618-43.04102,32.41107-68.41504,41.31177,4.13647-2.59076,8.48364-5.19672,12.78003-5.72919,4.28833-.53143,4.34155-7.34119,0-6.8031-7.38232,.91486-13.49146,5.75842-19.93018,9.11383-2.94531,1.53503-5.91064,3.02295-8.86377,4.5296-.0376-.05396-.07129-.11072-.10974-.164,3.61023-2.29095,7.17224-4.53351,10.34705-6.91376,7.45593-5.58984,14.54102-11.75854,21.8396-17.56,6.00732-4.77509,12.82861-9.30328,18.45605-14.68579,.39697,.17603,.85144,.28528,1.37231,.29376,3.27588,.05347,7.42383-.90198,7.56311-4.94128,.09949-2.88525-2.33875-5.39081-4.78528-6.51666-5.3418-2.45813-9.61841,2.40649-8.5813,6.00049-4.69678,4.56458-10.30811,8.53247-15.56836,12.51556,15.69604-16.85327,28.76648-36.41742,37.30359-57.21497,.83069-2.02362-2.45886-2.90503-3.28003-.9043-9.28247,22.61334-24.19226,43.8324-41.96899,61.50415-.48499-2.29059-3.53247-4.0639-5.77209-1.92975-6.77527,6.45593-14.30859,12.11029-21.56152,18.07745,8.13599-7.7688,16.14136-15.60419,23.6134-24.02924,6.87305-7.74969,13.52014-15.82739,19.71814-24.13068,4.81689-6.45294,10.93018-15.14001,10.75342-23.61755-.07349-3.52386-.88477-7.73767-2.25146-11.42981,1.78101-2.9259,.10095-6.54535-4.43835-7.16583-.43372-.05927-.83496-.02911-1.21497,.04456-2.42798-.52002-4.96387,1.01538-5.84277,4.36053-1.11865,4.25702,1.87451,6.28027,5.22778,6.15094,.08643,.21997,.16431,.43109,.21802,.61926,2.12061,7.41425,1.12561,12.54181-2.83569,19.41583-5.2688,9.14233-12.56238,17.37311-19.35425,25.40863-7.08838,8.38635-14.62378,16.39435-22.53418,24.00958-.35229,.33923-.70605,.6886-1.05957,1.03748,1.3562-3.24506-2.82849-7.0025-5.34277-3.89496-.823,1.01721-1.71826,1.95978-2.63806,2.87738,.07263-.08405,.14746-.16895,.21936-.25269,4.16333-4.84692,8.22852-9.74786,11.46277-15.27716,4.32886-7.40082,7.29321-15.52661,11.67578-22.88281,.54529-.91516,1.11755-2.02246,1.60315-3.21259,2.64832-1.39008,4.07764-4.29846,1.10339-8.08704-.33704-.4292-.70642-.72913-1.0896-.91937-.51306-.67853-1.19958-1.28027-2.13843-1.75323-4.15918-2.09528-7.96448,3.61536-7.35962,7.3233,.24121,1.47864,.98279,2.54468,1.98657,3.25159-2.50281,4.2066-4.4541,8.73798-6.58875,13.13898-3.14551,6.48511-6.6521,12.40149-10.91455,18.01953,7.1709-21.71704,15.0647-43.23401,28.6084-61.90039,1.28723-1.77417-1.6626-3.47363-2.93726-1.7168-15.3877,21.20789-23.5625,46.10034-31.59485,70.79419-2.21521,2.56531-4.42737,5.13275-6.60645,7.72772,.01111-.07428,.02283-.14954,.03381-.22363,1.97021-13.35956,5.02588-26.59467,4.93262-40.17401-.01599-2.32928-.20142-4.79504-1.13867-6.84741,.01245-.39783,.00488-.79114-.03979-1.16974-.16467-1.39423-.93091-2.99371-2.49731-3.28009-1.53857-.28131-2.77283-.22974-3.81958,.17419-2.42627-.02124-4.79822,1.24768-5.70935,3.69135-1.33228,3.57294,1.67407,8.12506,5.54041,8.23364,.26343,.00739,.51904-.00647,.76855-.03479,.03345,.75024,.0459,1.5152,.01025,2.31964-.13074,2.96222-.2467,5.95599-.49097,8.90906-.64893,7.84424-2.28638,15.67017-3.625,23.46533-3.44458-11.53516-6.0791-23.29041-6.93579-35.34735-.4679-6.58496-.83203-13.59619,.15552-20.14783Zm-92.7041,64.36591c-7.06775-7.28381-11.71008-17.12732-17.62921-25.36493-3.01245-4.19238-5.45227-8.32532-7.52704-13.04315-1.79132-4.07336-4.52991-7.50311-6.64355-11.39014-5.01117-9.21564-1.04895-22.55182,.51611-32.30902,1.79443-11.18719,4.25037-21.40558,10.46515-30.98761,2.49597-3.84821,4.52539-7.98938,8.57013-10.39948,3.74121-2.22931,8.01959-3.38446,11.77234-5.59003,3.31628-1.9491,6.09314-4.6814,9.33099-6.74896,5.06439-3.23401,9.82593-2.61792,15.49298-1.41962,9.57373,2.02441,18.49194,6.22504,26.07666,12.42139,19.02686,15.54382,30.11475,39.50342,35.3916,62.91736l.00586,.01807c-.3103,3.08368-.45508,6.21094-.41528,9.44977,.2052,16.73627,3.66992,32.99219,8.59961,48.87823-1.61731-3.79016-3.06421-7.66821-4.85278-11.36743-1.90527-3.94049-7.77368-.49457-5.87439,3.43372,1.68823,3.49152,3.04797,7.16132,4.54407,10.76099-2.07617-3.16357-4.29297-6.23096-6.57837-9.20001-4.14343-5.38336-9.10693-10.04315-13.21948-15.45337-1.77271-2.33209-3.80627-4.35669-5.92249-6.37939-4.06909-3.88934-9.08313-7.79803-12.88354-12.32349,4.66248-5.09454,1.26135-12.41382-6.06018-12.26617-3.34766,.0675-4.67688,1.52405-4.85986,3.56317-.24304,.35797-.41833,.80597-.49585,1.35614-.47034,3.34259-.76733,7.71405,2.69995,9.65186,.87244,.48767,1.80518,.68481,2.73975,.6684,.42627,.57581,.81714,1.065,1.13428,1.42499,5.97729,6.78815,13.54614,12.16449,18.98792,19.39886,5.31604,7.0672,11.64966,13.02704,16.59607,20.42047,.32471,.48553,.64404,.96643,.96533,1.44885-22.40039-14.10773-45.11987-27.42566-56.31836-53.05786-.87427-2.00116-3.80585-.27155-2.93713,1.71686,12.44446,28.48401,38.86121,42.14142,63.58997,58.12622,.93188,1.55212,1.81812,3.12622,2.64429,4.73871-3.54614-1.33441-7.15039-2.51544-10.76538-3.64868-4.18726-1.31268-5.97876,5.25281-1.80847,6.56012,3.8479,1.2063,7.68835,2.44122,11.45227,3.89325,1.47705,.56989,2.94458,1.17316,4.37891,1.84576,.11182,.50067,.31885,.95288,.60791,1.33936-.05591,.2179-.09497,.43829-.14648,.65717-4.54663,1.40918-9.91968,.79614-14.56421,.54095-5.88965-.32355-11.7561-.9538-17.64209-1.32288-1.95703-.12274-3.87231-.12262-5.82837-.09296-4.49475,.06818-8.69104-.97766-13.07373-1.81262-3.44495-.65631-6.86707-1.40503-10.28198-2.18402-.25513-.17859-.5332-.34045-.86255-.4599-11.08215-4.01898-21.11987-9.90515-29.37134-18.40894Zm85.79565,51.23016c-.96716,3.66528,3.80591,5.50397,5.83691,3.19366-2.8833,11.33337-7.52466,22.08728-13.53638,32.24359-6.80566,11.49701-14.52832,24.09619-24.66968,32.9295-5.995,5.22192-13.15344,8.19006-21.15625,8.20331-8.28418,.01367-16.32349-2.26178-24.46362-3.48572-7.40259-1.11304-15.00897-1.03735-22.33704-2.5976-7.50714-1.59833-12.43567-5.09027-16.78223-11.27881-4.01849-5.72137-7.8418-11.23352-13.36859-15.62732-6.05389-4.81287-11.35217-8.82837-15.99054-15.11938-4.48779-6.08673-10.2594-11.94678-12.22504-19.45691-1.89136-7.22638-1.22296-16.54108,1.54431-23.50293,2.69049-6.76849,9.07007-10.44086,15.09656-13.86237,8.10986-4.60431,15.66626-6.36462,24.97565-5.5697,16.5213,1.41071,32.66309,1.88715,48.90369,5.64819,8.82605,2.04395,17.63147,4.0426,26.52234,5.78662,5.56274,1.09113,11.0813,.7226,16.69397,1.1264,6.01184,.43262,12.01025,1.04773,18.03333,1.31647,3.72827,.16638,7.83252,.42804,11.65637-.18805-11.78503,5.29614-24.69983,8.1449-36.21191,14.18628-1.11829,.58691-2.41003,1.28735-3.65198,2.11749-2.72266-.72131-5.70215-.15747-8.07703,2.76013-3.27246,4.02014-1.3324,11.10156,3.97839,12.20996,2.41272,.50354,4.55811-.30725,6.18555-1.78741,.6377-.0401,1.26953-.15167,1.87061-.35828,4.48743-1.54285,4.34082-5.41205,2.09558-8.55139,2.93323-1.6864,6.16345-3.03082,9.21753-4.36292,8.33997-3.63751,17.15967-5.95746,25.55139-9.35327,.31177,.91101,.71704,1.77704,1.2334,2.58099-2.87427,3.23254-5.77344,6.43463-6.92529,10.79944Zm127.28516,55.17004c1.79565,4.81708,3.04138,9.82294,4.42468,14.76764,1.58459,5.66443,3.52112,11.39307,3.85242,17.30713,.62012,11.06232-2.71289,20.53918-10.10352,28.72083-7.44946,8.24689-16.11548,14.04468-26.57642,17.74451-10.79956,3.81964-21.94482,7.65076-33.52466,5.67065-10.43542-1.78442-19.50659-7.52374-27.74951-13.92773-17.20142-13.36371-28.72461-32.29193-29.83826-54.32819-1.13318-22.42303,8.00427-44.24115,4.71887-66.50824,.86841-3.46381,1.57837-6.97821,2.10571-10.54541,1.854,.33594,3.78564,.2998,5.68896-.05719,5.45996,10.10077,10.5929,20.36798,15.8938,30.55573,1.16919,2.24713,2.51099,5.05847,4.25317,7.35449,.01062,.30231,.03564,.61285,.08679,.93756,.81458,5.16473,6.33069,6.01068,9.61462,2.44104,.59985-.6521,.86865-1.36914,.91113-2.07275,.49219-.81476,.86414-1.75598,1.09387-2.75189,.41663-1.8064-.547-3.65784-2.37585-4.18433-1.56787-.45135-3.2229-.48602-4.70142-.1311-.53687-.77576-1.10339-1.54395-1.54565-2.32086-1.42627-2.50635-2.6499-5.11163-3.93311-7.69135-4.11255-8.26776-8.39795-16.47754-12.84033-24.58881,.08899-.05255,.18225-.09949,.27026-.15326,3.43286,2.72607,7.20215,5.10962,10.69702,7.22369,12.4657,15.15576,30.34082,24.35388,49.65662,28.79028,7.65601,1.75842,15.48376,2.79785,23.32947,3.59009,6.99646,6.85608,13.1499,14.92596,16.59131,24.15747Zm72.69739-82.0155c-5.901,19.07642-19.87854,40.06134-38.45764,48.76355-9.87317,4.62433-21.18311,4.57532-31.84058,3.91486-10.83398-.67133-21.90698-1.60754-32.61182-3.40936-18.78662-3.16211-36.97571-10.2981-50.14026-23.65002,.26062-1.2514-.13123-2.61865-1.54736-3.47015-1.09473-.6582-2.18787-1.32288-3.27478-1.99835-1.56665-1.99103-3.04077-4.0899-4.39954-6.31598-.73804-1.20917-1.85291-1.65466-2.94678-1.59241,.12463-.15247,.2467-.30737,.36414-.46698,.62085-.328,1.21887-.70685,1.77625-1.14307,.30066-.15088,.60083-.30334,.90417-.44714,1.62964,.42456,3.23389,.86188,4.78125,1.26428,3.21021,.83496,5.89136,2.11432,8.85278,3.65863,2.04199,1.06476,4.05884,2.21033,6.17871,3.11298,1.7998,.76642,3.99158,1.1095,5.35657,2.5896,2.97473,3.22546,7.77625-1.59479,4.81055-4.81055-2.98279-3.23425-8.34363-4.3822-12.17444-6.38007-2.20728-1.15112-4.36072-2.2821-6.61328-3.21094,7.48303-1.69116,15.37549-2.13574,23.1698-2.474,1.599,.12189,3.19739,.2514,4.79431,.39667,8.33325,.75787,16.63696,1.80408,24.96289,2.63434,16.04907,1.6004,32.1001,2.15491,48.01636-.89606,2.14758-.41162,1.23828-3.69073-.9043-3.28003-17.15637,3.28864-34.48584,2.1416-51.73657,.29449-1.70532-.18262-3.4104-.37158-5.11523-.5603,14.08813-1.89056,27.03613-6.37689,36.90991-16.23932,2.42651-.04639,4.89307-.62878,6.77295-1.38324,1.84277-.73944,2.71533-2.18823,2.37585-4.18433-.43201-2.54034-2.03748-3.93701-3.62781-5.86981-.93018-1.13043-2.34595-1.22052-3.55042-.729-1.78162-.71033-3.81433-.90729-5.61975-.51843-4.62524,.9964-6.92969,6.18323-3.69971,10.0141,.07153,.08472,.15405,.15491,.22913,.23499-17.93933,15.77905-44.45081,11.43097-68.12537,14.86505,24.48022-8.14038,50.02954-18.16382,69.59302-35.17145,11.11023-1.4483,22.15344-3.4455,33.40552-3.15625,2.1897,.05634,2.18848-3.34528,0-3.40155-9.78967-.25165-19.41516,1.22699-29.06665,2.56958,.93945-.91333,1.86865-1.83838,2.77393-2.78992,9.56934-10.05743,16.36865-22.42346,18.02612-36.3219,.25098-2.104,.36792-4.21625,.38525-6.32867,9.11047,1.40149,17.80713,4.98706,26.48267,7.99591,9.23853,3.20416,16.06592,7.68835,20.16943,16.85797,8.24585,18.42578,10.33691,41.71289,4.36072,61.03229Z"/>
      <g>
        <path class="cls-4" d="M478.10334,219.31291c-17.5459,13.03003-35.53015,25.64612-56.06439,33.52881-2.02289,.77655-1.14453,4.06653,.9043,3.28009,20.83636-7.99866,39.06671-20.64545,56.87689-33.8717,1.73792-1.29059,.04358-4.24451-1.7168-2.93719Z"/>
        <path class="cls-4" d="M465.75166,200.56194c2.09546-.61676,1.20349-3.90045-.9043-3.28003-12.54163,3.69135-25.62207,4.6377-38.59277,5.68591-12.69269,1.02576-25.64081,3.88336-38.37457,3.36145-2.1889-.08966-2.18481,3.31207,0,3.40161,13.2879,.54456,26.86237-2.42987,40.10919-3.50085,12.68872-1.02594,25.49707-2.05804,37.76245-5.66809Z"/>
        <path class="cls-4" d="M521.58857,223.06182c-.43677-2.14343-3.71631-1.23621-3.28003,.9043,5.37085,26.36066,20.22729,49.48462,26.41357,75.59778,.50439,2.12921,3.78516,1.22784,3.28003-.90424-6.18628-26.11365-21.04297-49.23798-26.41357-75.59784Z"/>
        <path class="cls-4" d="M560.31636,236.88439c-1.65466-1.41656-4.07153,.97876-2.4054,2.40527,13.47034,11.5329,21.86353,27.27283,32.78943,40.98682,1.36377,1.71161,3.75647-.70935,2.40527-2.40533-10.93604-13.7265-19.30066-29.43805-32.78931-40.98676Z"/>
        <path class="cls-4" d="M467.2375,102.58629c6.16821,10.04486,11.05371,20.81427,15.92896,31.52502,.90576,1.98962,3.83826,.2627,2.93726-1.71686-5.06335-11.1239-10.14014-22.31598-16.65002-32.68787-6.42261-10.23279-14.26013-19.35065-22.98962-27.68005-1.58374-1.51123-3.9928,.89038-2.40527,2.40527,8.85986,8.45374,16.76025,17.70203,23.17871,28.15448Z"/>
      </g>
    </g>
    <g id="texte">
      <g>
        <path class="cls-1" d="M113.25141,436.4218c-4.69385,0-7.03955-2.41992-7.03955-7.25977v-64.02002c0-4.76562,2.38184-7.14941,7.1499-7.14941h26.50928c8.50586,0,15.07031,2.03516,19.69141,6.10449,4.61914,4.07031,6.92969,9.77344,6.92969,17.10547,0,5.79395-1.50391,10.5791-4.50977,14.35449-3.00781,3.77832-7.33398,6.3252-12.98047,7.64551,3.74023,1.17383,6.82031,3.99756,9.24023,8.46924l8.25,15.29004c1.24609,2.34766,1.48438,4.50977,.71484,6.49023-.76953,1.97949-2.66016,2.96973-5.66602,2.96973-1.97852,0-3.59375-.42285-4.83984-1.26465-1.24805-.84277-2.34766-2.14551-3.29883-3.90527l-11.11133-20.45996c-1.31836-2.49219-2.87891-4.16113-4.67383-5.00439-1.79883-.84277-4.08984-1.26465-6.875-1.26465h-10.45068v24.63916c0,4.83984-2.34766,7.25977-7.04004,7.25977Zm7.04004-42.34912h17.15967c10.26758,0,15.40039-4.18066,15.40039-12.54004,0-8.28613-5.13281-12.43066-15.40039-12.43066h-17.15967v24.9707Z"/>
        <path class="cls-1" d="M181.01264,436.4218c-2.56836,0-4.40039-.87988-5.5-2.63965-1.10059-1.75977-1.06445-3.88672,.10938-6.37988l29.04004-64.3501c.95215-2.12598,2.10742-3.64648,3.46582-4.56445,1.35547-.91602,2.91406-1.37598,4.6748-1.37598,1.68555,0,3.20703,.45996,4.56445,1.37598,1.35645,.91797,2.51172,2.43848,3.46484,4.56445l29.15039,64.3501c1.17188,2.56738,1.24609,4.71289,.21973,6.43457-1.02734,1.72266-2.78711,2.58496-5.2793,2.58496-2.05469,0-3.64941-.49512-4.78516-1.48535-1.1377-.98926-2.14551-2.51074-3.02539-4.56445l-5.5-12.75977h-37.83984l-5.38965,12.75977c-.9541,2.12793-1.94434,3.66797-2.9707,4.62012-1.02734,.95215-2.49316,1.42969-4.39941,1.42969Zm31.56934-63.13916l-13.96973,33.10889h28.16016l-13.96973-33.10889h-.2207Z"/>
        <path class="cls-1" d="M268.68159,436.4218c-4.40039,0-6.60059-2.27246-6.60059-6.82031v-65.44873c0-2.27246,.56738-4.01562,1.70508-5.22559,1.13672-1.20996,2.62109-1.81543,4.45508-1.81543,1.68652,0,2.95117,.31348,3.79492,.93555,.84277,.62402,1.85156,1.66895,3.02539,3.13477l39.26953,50.93018v-48.28955c0-4.47266,2.2002-6.71094,6.60059-6.71094,4.32617,0,6.48926,2.23828,6.48926,6.71094v65.99951c0,2.05371-.51367,3.66797-1.54004,4.83984-1.02734,1.17188-2.41992,1.75977-4.17969,1.75977-1.6875,0-3.02441-.33008-4.01465-.99023-.99023-.65918-2.07324-1.72168-3.24512-3.18945l-39.27051-51.03955v48.39893c0,4.54785-2.16309,6.82031-6.48926,6.82031Z"/>
        <path class="cls-1" d="M351.83979,435.54192c-4.98828,0-7.48047-2.49219-7.48047-7.48047v-62.58936c0-4.98535,2.49219-7.47949,7.48047-7.47949h21.33984c12.97949,0,23.00684,3.33789,30.08496,10.00977,7.07617,6.67383,10.61523,16.24414,10.61523,28.70996,0,12.39307-3.53906,21.96338-10.61523,28.70947-7.07812,6.74805-17.10547,10.12012-30.08496,10.12012h-21.33984Zm6.59961-11.66016h13.86035c17.8916,0,26.83984-9.05566,26.83984-27.16943,0-18.04004-8.94824-27.05957-26.83984-27.05957h-13.86035v54.229Z"/>
        <path class="cls-1" d="M462.9394,436.64153c-7.48047,0-14.02539-1.64941-19.63574-4.94922-5.60938-3.30078-9.95508-7.9375-13.03516-13.91504-3.0791-5.97656-4.61914-12.99658-4.61914-21.06494,0-8.13965,1.54004-15.17969,4.61914-21.12012,3.08008-5.93945,7.40625-10.54102,12.98047-13.80469,5.57227-3.2627,12.13574-4.89453,19.69043-4.89453,7.55176,0,14.11523,1.63184,19.68945,4.89453,5.57227,3.26367,9.90039,7.86523,12.98047,13.80469,3.08008,5.94043,4.61914,12.94434,4.61914,21.00977,0,8.14062-1.53906,15.19873-4.61914,21.17529-3.08008,5.97754-7.4082,10.61426-12.98047,13.91504-5.57422,3.2998-12.1377,4.94922-19.68945,4.94922Zm0-12.09961c7.11133,0,12.64941-2.45605,16.60938-7.37012,3.95996-4.91211,5.94043-11.73193,5.94043-20.45947,0-8.7998-1.96289-15.62012-5.88574-20.45996-3.92383-4.83984-9.47852-7.25977-16.66406-7.25977-7.11426,0-12.65039,2.41992-16.61035,7.25977s-5.94043,11.66016-5.94043,20.45996c0,8.72754,1.98047,15.54736,5.94043,20.45947,3.95996,4.91406,9.49609,7.37012,16.61035,7.37012Z"/>
      </g>
      <g>
        <path class="cls-1" d="M309.15815,551.02532c-4.69336,0-7.04004-2.41992-7.04004-7.25977v-64.02051c0-4.76562,2.38281-7.14941,7.15039-7.14941h26.50977c8.50586,0,15.07031,2.12793,19.69043,6.37988,4.62012,4.25391,6.92969,10.19336,6.92969,17.82031s-2.30957,13.58496-6.92969,17.875-11.18457,6.43457-19.69043,6.43457h-19.58008v22.66016c0,4.83984-2.34766,7.25977-7.04004,7.25977Zm7.04004-41.03027h17.37988c10.12012,0,15.18066-4.39941,15.18066-13.19922,0-8.72656-5.06055-13.09082-15.18066-13.09082h-17.37988v26.29004Z"/>
        <path class="cls-1" d="M408.04878,551.24504c-7.48047,0-14.02539-1.64941-19.63574-4.94922-5.60938-3.30078-9.95508-7.9375-13.03516-13.91504-3.0791-5.97656-4.61914-12.99707-4.61914-21.06543,0-8.13965,1.54004-15.17969,4.61914-21.12012,3.08008-5.93945,7.40625-10.54102,12.98047-13.80469,5.57227-3.2627,12.13574-4.89453,19.69043-4.89453,7.55176,0,14.11523,1.63184,19.68945,4.89453,5.57227,3.26367,9.90039,7.86523,12.98047,13.80469,3.08008,5.94043,4.61914,12.94434,4.61914,21.00977,0,8.14062-1.53906,15.19922-4.61914,21.17578-3.08008,5.97754-7.4082,10.61426-12.98047,13.91504-5.57422,3.2998-12.1377,4.94922-19.68945,4.94922Zm0-12.09961c7.11133,0,12.64941-2.45605,16.60938-7.37012,3.95996-4.91211,5.94043-11.73242,5.94043-20.45996,0-8.7998-1.96289-15.62012-5.88574-20.45996-3.92383-4.83984-9.47852-7.25977-16.66406-7.25977-7.11426,0-12.65039,2.41992-16.61035,7.25977s-5.94043,11.66016-5.94043,20.45996c0,8.72754,1.98047,15.54785,5.94043,20.45996,3.95996,4.91406,9.49609,7.37012,16.61035,7.37012Z"/>
        <path class="cls-1" d="M491.86811,551.24504c-10.63379,0-18.75488-2.7666-24.36523-8.30469-5.61035-5.53613-8.41504-13.73145-8.41504-24.58496v-39.49023c0-4.76562,2.3457-7.15039,7.04004-7.15039,4.69238,0,7.04004,2.38477,7.04004,7.15039v39.37988c0,6.96777,1.59473,12.19336,4.78516,15.67578,3.18945,3.4834,7.82715,5.22461,13.91504,5.22461,12.3916,0,18.58984-6.96582,18.58984-20.90039v-39.37988c0-4.76562,2.3457-7.15039,7.04004-7.15039,4.62012,0,6.92969,2.38477,6.92969,7.15039v39.49023c0,10.85352-2.75,19.04883-8.25,24.58496-5.5,5.53809-13.60352,8.30469-24.30957,8.30469Z"/>
        <path class="cls-1" d="M547.85639,551.02532c-4.69336,0-7.04004-2.41992-7.04004-7.25977v-64.02051c0-4.76562,2.38281-7.14941,7.15039-7.14941h26.50977c8.50586,0,15.07031,2.03516,19.69043,6.10449,4.62012,4.07031,6.92969,9.77344,6.92969,17.10547,0,5.79395-1.50391,10.5791-4.50977,14.35449-3.00781,3.77832-7.33398,6.3252-12.98047,7.64551,3.74023,1.17383,6.82031,3.99805,9.24023,8.46973l8.25,15.29004c1.24609,2.34766,1.48535,4.50977,.71484,6.49023-.76953,1.97949-2.65918,2.96973-5.66504,2.96973-1.97949,0-3.59375-.42285-4.83984-1.26465-1.24805-.84277-2.34766-2.14551-3.2998-3.90527l-11.11035-20.45996c-1.31934-2.49219-2.87891-4.16113-4.6748-5.00488-1.79785-.84277-4.08887-1.26465-6.875-1.26465h-10.4502v24.63965c0,4.83984-2.34766,7.25977-7.04004,7.25977Zm7.04004-42.34961h17.16016c10.2666,0,15.40039-4.18066,15.40039-12.54004,0-8.28613-5.13379-12.43066-15.40039-12.43066h-17.16016v24.9707Z"/>
      </g>
      <g>
        <path class="cls-1" d="M255.03071,665.62883c-4.69434,0-7.04004-2.41992-7.04004-7.25977v-59.40039h-21.4502c-4.0332,0-6.0498-1.97949-6.0498-5.93945,0-3.88672,2.0166-5.83008,6.0498-5.83008h56.98047c4.03223,0,6.0498,1.94336,6.0498,5.83008,0,3.95996-2.01758,5.93945-6.0498,5.93945h-21.4502v59.40039c0,4.83984-2.34766,7.25977-7.04004,7.25977Z"/>
        <path class="cls-1" d="M327.63032,665.84856c-7.48047,0-14.02539-1.64941-19.63574-4.94922-5.60938-3.30078-9.95508-7.9375-13.03516-13.91504-3.0791-5.97656-4.61914-12.99707-4.61914-21.06543,0-8.13965,1.54004-15.17969,4.61914-21.12012,3.08008-5.93945,7.40625-10.54102,12.98047-13.80469,5.57227-3.2627,12.13574-4.89453,19.69043-4.89453,7.55176,0,14.11523,1.63184,19.68945,4.89453,5.57227,3.26367,9.90039,7.86523,12.98047,13.80469,3.08008,5.94043,4.61914,12.94434,4.61914,21.00977,0,8.14062-1.53906,15.19922-4.61914,21.17578-3.08008,5.97754-7.4082,10.61426-12.98047,13.91504-5.57422,3.2998-12.1377,4.94922-19.68945,4.94922Zm0-12.09961c7.11133,0,12.64941-2.45605,16.60938-7.37012,3.95996-4.91211,5.94043-11.73242,5.94043-20.45996,0-8.7998-1.96289-15.62012-5.88574-20.45996-3.92383-4.83984-9.47852-7.25977-16.66406-7.25977-7.11426,0-12.65039,2.41992-16.61035,7.25977s-5.94043,11.66016-5.94043,20.45996c0,8.72754,1.98047,15.54785,5.94043,20.45996,3.95996,4.91406,9.49609,7.37012,16.61035,7.37012Z"/>
        <path class="cls-1" d="M411.44917,665.84856c-10.63379,0-18.75488-2.7666-24.36523-8.30469-5.61035-5.53613-8.41504-13.73145-8.41504-24.58496v-39.49023c0-4.76562,2.3457-7.15039,7.04004-7.15039,4.69238,0,7.04004,2.38477,7.04004,7.15039v39.37988c0,6.96777,1.59473,12.19336,4.78516,15.67578,3.18945,3.4834,7.82715,5.22461,13.91504,5.22461,12.3916,0,18.58984-6.96582,18.58984-20.90039v-39.37988c0-4.76562,2.3457-7.15039,7.04004-7.15039,4.62012,0,6.92969,2.38477,6.92969,7.15039v39.49023c0,10.85352-2.75,19.04883-8.25,24.58496-5.5,5.53809-13.60352,8.30469-24.30957,8.30469Z"/>
        <path class="cls-1" d="M487.12788,665.84856c-4.91406,0-9.69922-.5498-14.35547-1.64941-4.65723-1.10059-8.70898-2.75-12.1543-4.9502-1.68848-1.09961-2.71387-2.45605-3.08008-4.07031-.36816-1.6123-.23926-3.13477,.38477-4.56445,.62207-1.43066,1.6123-2.41992,2.96973-2.9707,1.35645-.5498,2.91504-.27441,4.6748,.8252,3.22656,1.9082,6.63672,3.2998,10.23047,4.18066,3.5918,.87988,7.37012,1.31934,11.33008,1.31934,5.79199,0,10.00977-.9707,12.64941-2.91504,2.64062-1.94141,3.95996-4.45508,3.95996-7.53516,0-2.56543-.93457-4.58203-2.80469-6.0498-1.87012-1.46582-5.0791-2.67578-9.625-3.62988l-12.09961-2.53027c-13.78809-2.93164-20.68066-10.00977-20.68066-21.22949,0-4.83984,1.28223-9.05664,3.85059-12.65039,2.56543-3.5918,6.12207-6.37988,10.66992-8.35938,4.5459-1.98047,9.79004-2.96973,15.72949-2.96973,4.40039,0,8.58008,.54883,12.54004,1.64941,3.95996,1.09961,7.5166,2.71387,10.66992,4.83984,1.4668,1.02832,2.34668,2.29297,2.64062,3.79492,.29199,1.50391,.10938,2.89844-.5498,4.18066-.66016,1.2832-1.70508,2.16309-3.13574,2.63965-1.42969,.47754-3.09863,.16504-5.00488-.93555-2.71387-1.53906-5.46387-2.63965-8.25-3.2998-2.78711-.66016-5.79395-.98926-9.01953-.98926-5.06055,0-9.02051,1.06348-11.87988,3.18945-2.86035,2.12793-4.29004,4.91406-4.29004,8.36035,0,2.63965,.87988,4.74902,2.63965,6.3252,1.75977,1.57715,4.7666,2.80469,9.02051,3.68457l11.98926,2.53027c7.26074,1.54004,12.66699,3.95996,16.22559,7.25977,3.55566,3.2998,5.33496,7.7002,5.33496,13.2002,0,4.62012-1.24805,8.68945-3.74023,12.20996-2.49414,3.51953-6.0332,6.25293-10.61523,8.19434-4.58398,1.94238-9.99219,2.91504-16.22461,2.91504Z"/>
      </g>
    </g>
  </g>
</svg>